<?xml version="1.0" encoding="UTF-8" standalone="no"?>
<!-- Generator: Adobe Illustrator 12.0.1, SVG Export Plug-In . SVG Version: 6.00 Build 51448)  -->

<svg
   xmlns:dc="http://purl.org/dc/elements/1.1/"
   xmlns:cc="http://creativecommons.org/ns#"
   xmlns:rdf="http://www.w3.org/1999/02/22-rdf-syntax-ns#"
   xmlns:svg="http://www.w3.org/2000/svg"
   xmlns="http://www.w3.org/2000/svg"
   xmlns:xlink="http://www.w3.org/1999/xlink"
   xmlns:sodipodi="http://sodipodi.sourceforge.net/DTD/sodipodi-0.dtd"
   xmlns:inkscape="http://www.inkscape.org/namespaces/inkscape"
   version="1.1"
   id="Layer_1"
   width="1024"
   height="768"
   viewBox="0 0 1024 767.99997"
   overflow="visible"
   enable-background="new 0 0 289.124 77.842"
   xml:space="preserve"
   inkscape:version="0.91 r13725"
   sodipodi:docname="splashscreen.svg"
   style="overflow:visible"
   inkscape:export-filename="/home/zlsa/projects/fgfs/piper-archer/Instruments/g1000/svg/splashscreen.png"
   inkscape:export-xdpi="90"
   inkscape:export-ydpi="90"><metadata
     id="metadata3662"><rdf:RDF><cc:Work
         rdf:about=""><dc:format>image/svg+xml</dc:format><dc:type
           rdf:resource="http://purl.org/dc/dcmitype/StillImage" /><dc:title /></cc:Work></rdf:RDF></metadata><defs
     id="defs3660"><defs
       id="defs3650"><path
         inkscape:connector-curvature="0"
         d="M 265.682,27.688 239.69,27.687 c -0.953,0 -1.771,-0.474 -2.247,-1.299 -0.476,-0.825 -0.476,-1.769 10e-4,-2.594 L 250.441,1.296 C 250.917,0.472 251.734,0 252.687,0 c 0.952,0 1.77,0.472 2.246,1.296 l 12.995,22.499 c 0.478,0.825 0.478,1.77 10e-4,2.595 -0.476,0.824 -1.294,1.298 -2.247,1.298 z"
         id="XMLID_1_" /></defs><clipPath
       id="XMLID_3_"><use
         height="100%"
         width="100%"
         y="0"
         x="0"
         id="use3656"
         xlink:href="#XMLID_1_" /></clipPath></defs><sodipodi:namedview
     pagecolor="#ffffff"
     bordercolor="#666666"
     borderopacity="1"
     objecttolerance="10"
     gridtolerance="10"
     guidetolerance="10"
     inkscape:pageopacity="0"
     inkscape:pageshadow="2"
     inkscape:window-width="1600"
     inkscape:window-height="859"
     id="namedview3658"
     showgrid="false"
     inkscape:zoom="1"
     inkscape:cx="520.81363"
     inkscape:cy="458.76596"
     inkscape:window-x="0"
     inkscape:window-y="20"
     inkscape:window-maximized="0"
     inkscape:current-layer="Layer_1"><inkscape:grid
       type="xygrid"
       id="grid3664" /></sodipodi:namedview><rect
     style="opacity:1;fill:#000000;fill-opacity:1;fill-rule:nonzero;stroke:none;stroke-width:8;stroke-linecap:round;stroke-linejoin:round;stroke-miterlimit:4;stroke-dasharray:none;stroke-dashoffset:0;stroke-opacity:1"
     id="rect3388"
     width="1024"
     height="768"
     x="0"
     y="0" /><path
     d="m 375.49018,374.48271 c -26.18891,10e-4 -26.94499,20.91578 -26.94499,23.3004 0,21.94093 22.44241,23.05382 26.94254,23.05382 14.89225,0 21.18563,-4.02372 21.44682,-4.19785 0.93168,-0.5269 2.0658,-1.58967 2.0658,-3.58081 l 0,-15.14513 c 0,-1.39526 -1.13679,-2.53196 -2.53319,-2.53196 l -18.70876,0 c -1.39866,0 -2.31727,1.1367 -2.31729,2.53196 l 0,1.56898 c 0,1.39753 0.91863,2.53686 2.31729,2.53686 l 10.82093,0 c 1.04475,0 1.89406,0.84809 1.89406,1.89284 0,0 -0.01,6.63795 -0.01,7.05857 -2.13812,0.87289 -11.87561,3.71798 -19.69995,1.85235 -11.34982,-2.71477 -12.23412,-12.07863 -12.23412,-14.88384 0,-2.35408 0.70555,-14.14731 14.64463,-15.34018 11.2831,-0.9656 18.71255,3.59068 18.78605,3.63478 1.32629,0.68746 2.69904,0.19721 3.43851,-1.2071 0.003,-0.0113 1.40827,-2.85213 1.40827,-2.85213 0.58456,-1.16912 0.3879,-2.38109 -1.03903,-3.34896 -0.095,-0.0543 -8.00416,-4.3426 -20.27775,-4.3426 z m 52.39951,0.87466 c -1.21774,0 -2.64173,0.90043 -3.16862,1.99833 l -19.65826,41.06826 c -0.54611,1.08659 0.0472,1.86462 1.26721,1.86462 l 4.54379,0 c 1.79327,0 2.61486,-0.8148 3.09993,-1.81432 0.48732,-0.99953 1.57061,-3.17193 1.77752,-3.61516 0.28041,-0.59926 1.1437,-0.96656 2.36145,-0.96543 l 21.15239,0.0111 c 1.21889,0.003 2.00199,0.23414 2.36268,0.95439 0.23517,0.46923 1.31602,2.42257 1.84744,3.4888 0.53595,1.06624 1.43644,1.94068 3.18335,1.94068 l 6.59119,0 c 1.21888,0 1.75253,-0.92557 1.31382,-1.78489 -0.44097,-0.86158 -20.99047,-41.1664 -20.99047,-41.1664 -0.54161,-1.08998 -1.98297,-1.97993 -3.20298,-1.97993 l -2.48044,0 z m 35.94792,0 c -1.21662,0 -2.21301,0.99423 -2.21301,2.21423 l 0,40.71987 c 0,1.22001 0.99526,1.99711 2.21301,1.99711 l 5.27982,0 c 1.21888,0 2.21424,-0.77823 2.21424,-1.99711 0,0 0.003,-16.1952 0.0135,-16.1952 0.009,0 0.0147,-0.01 0.0147,-0.0209 0,-0.0136 10.00762,-0.0246 10.00762,-0.0246 1.21661,0 2.78929,0.81338 3.49371,1.81064 l 10.38789,14.62746 c 0.96561,1.29576 1.88463,1.7996 3.10239,1.7996 l 6.90032,0 c 1.21887,0 1.40927,-1.14863 0.98751,-1.74563 -0.41722,-0.59361 -10.78781,-15.36839 -10.78781,-15.36839 -0.69989,-0.99727 -0.31562,-2.09906 0.85012,-2.44731 0,0 4.64172,-1.38982 6.86352,-3.38209 2.22292,-1.99791 3.34037,-4.88151 3.34037,-8.64104 0,-2.45811 -0.42967,-4.52467 -1.28561,-6.20599 -0.85592,-1.67681 -2.08242,-3.05054 -3.67894,-4.10094 -1.59653,-1.05606 -3.50729,-1.82977 -5.73248,-2.31483 -2.22858,-0.4828 -5.23566,-0.6244 -5.23566,-0.6244 -1.21887,-0.0554 -3.2094,-0.10059 -4.42602,-0.10059 l -22.3092,0 z m 56.24406,0 c -1.21887,0 -2.21792,0.99423 -2.21792,2.21423 l 0,40.66835 c 0,1.21662 0.80117,2.04863 2.21792,2.04863 l 4.29721,0 c 1.22001,0 2.09893,-0.76957 2.09893,-1.94435 0,-0.56309 0.0187,-29.57877 0.065,-29.57877 0.0475,0 15.91184,29.57141 15.91184,29.57141 0.57438,1.07301 1.98428,1.07708 2.56998,0.009 0,0 15.99438,-29.49411 16.04187,-29.49413 0.0497,0 0.0319,28.64602 0.0319,29.49291 0,1.17591 0.93901,1.94435 2.15903,1.94435 l 4.95105,0 c 1.22001,0 2.21302,-0.60762 2.213,-2.21546 l 0,-40.50029 c 0,-1.22001 -0.99299,-2.21424 -2.213,-2.21424 l -6.62799,0 c -1.69151,0 -2.70968,0.86283 -3.31461,1.92228 l -13.17133,23.47336 c -0.59134,1.06397 -1.56457,1.06132 -2.14799,-0.005 l -12.74934,-23.41203 c -0.5416,-1.08659 -1.65272,-1.97993 -3.20175,-1.97993 l -6.91382,0 z m 92.8814,0 c -1.54225,0 -2.21792,0.82276 -2.21792,1.65607 l 0,41.65096 c 0,0.83105 0.79183,1.62418 2.01183,1.62418 l 4.91303,0 c 1.21549,0 2.06826,-0.66324 2.06826,-1.78488 0,-0.56309 0.0246,-27.43936 0.0246,-27.43936 0,-1.21775 0.68869,-1.49549 1.53217,-0.61582 l 27.19402,28.27108 c 0.86384,0.86498 1.91279,1.56898 3.77953,1.56898 l 3.69122,0 c 1.22,0 2.21546,-0.99658 2.21546,-2.21546 l 0,-40.50029 c 0,-1.22001 -0.99546,-2.21424 -2.21546,-2.21424 l -4.53275,0 0,-10e-4 c -1.21774,0 -2.20197,0.8026 -2.20197,1.97625 0,0.56308 0.0135,26.04704 0.0135,26.04704 0,1.22113 -0.69012,1.49812 -1.53587,0.62072 l -26.08014,-27.05172 c -0.84688,-0.87741 -2.08612,-1.59229 -3.75501,-1.59229 l -4.90444,0 z m -25.27419,10e-4 c -1.22001,-10e-4 -2.21668,0.74852 -2.21668,2.29643 l 0,40.74318 c 0,1.12164 0.99667,1.89038 2.21668,1.89038 l 5.37182,0 c 1.21775,0 2.21424,-0.77823 2.21424,-1.9971 l 0,-40.71865 c 0,-1.22001 -0.78672,-2.21424 -2.00446,-2.21424 l -5.5816,0 z m -114.11108,7.33949 10.34128,0 c 1.21888,0 3.20941,0.0436 4.42602,0.0945 0,0 1.53911,0.0611 2.90611,0.37661 1.367,0.31546 2.45095,0.7549 3.24469,1.32363 0.79713,0.57213 1.36632,1.24315 1.71005,2.01428 0.3392,0.77113 0.51277,1.61129 0.51277,2.52828 0,0.91246 -0.17357,1.75705 -0.51277,2.52705 -0.34373,0.77112 -0.91292,1.44093 -1.71005,2.01305 -0.79374,0.57213 -1.87769,1.01761 -3.24469,1.32854 -1.367,0.31433 -2.90611,0.37784 -2.90611,0.37784 -1.21661,0.0531 -3.20714,0.0969 -4.42602,0.0969 l -10.34128,0 c -1.21888,0 -2.21546,-0.99771 -2.21546,-2.21546 l 0,-8.25095 c 0,-1.21888 0.99658,-2.21424 2.21546,-2.21424 z m -45.02568,5.42212 c 0.33568,0.002 0.6697,0.28061 0.92128,0.83295 l 7.54189,16.59512 c 0.50316,1.10694 -0.0825,2.01305 -1.2991,2.01305 L 421.15376,407.55 c -1.21775,0 -1.79168,-0.90696 -1.27948,-2.00937 l 7.74676,-16.59512 c 0.2578,-0.55291 0.59541,-0.82743 0.93108,-0.82559 z m 240.87338,25.87774 -0.44163,6.33726 0.78019,0 0.16807,-2.71597 c 0.0554,-0.95882 0.10345,-2.01262 0.12267,-2.80184 l 0.0184,0 c 0.17978,0.75191 0.423,1.56098 0.72376,2.46327 l 1.03536,3.01651 0.62072,0 1.11877,-3.07294 c 0.31886,-0.87516 0.5736,-1.67415 0.7986,-2.40684 l 0.0196,0 c 0,0.78017 0.0556,1.8514 0.10304,2.7356 l 0.15212,2.78221 0.80964,0 -0.39624,-6.33726 -1.04394,0 -1.12736,3.06558 c -0.28267,0.7994 -0.50867,1.49444 -0.67715,2.13328 l -0.0196,0 c -0.16961,-0.65692 -0.3768,-1.35311 -0.63912,-2.13328 l -1.08197,-3.06558 -1.04395,0 z m -6.14099,10e-4 0,0.69555 1.92842,0 0,5.6417 0.82804,0 0,-5.6417 1.93698,0 0,-0.69555 -4.69344,0 z"
     id="path3634"
     style="fill:#ffffff;fill-opacity:1"
     inkscape:connector-curvature="0" /><path
     style="fill:#2b79ca;fill-opacity:1;fill-rule:evenodd;stroke:#2b79ca;stroke-width:5.02466106;stroke-linecap:butt;stroke-linejoin:round;stroke-miterlimit:4;stroke-dasharray:none;stroke-opacity:1"
     d="m 619.87321,361.91247 15.07398,-26.37947 15.07399,26.37947 z"
     id="path4500"
     inkscape:connector-curvature="0" /></svg>