<?xml version="1.0" encoding="UTF-8" standalone="no"?>
<!-- Created with Inkscape (http://www.inkscape.org/) -->

<svg
   xmlns:dc="http://purl.org/dc/elements/1.1/"
   xmlns:cc="http://creativecommons.org/ns#"
   xmlns:rdf="http://www.w3.org/1999/02/22-rdf-syntax-ns#"
   xmlns:svg="http://www.w3.org/2000/svg"
   xmlns="http://www.w3.org/2000/svg"
   xmlns:xlink="http://www.w3.org/1999/xlink"
   xmlns:sodipodi="http://sodipodi.sourceforge.net/DTD/sodipodi-0.dtd"
   xmlns:inkscape="http://www.inkscape.org/namespaces/inkscape"
   width="1024"
   height="1024"
   id="svg2"
   version="1.1"
   inkscape:version="0.48.5 r10040"
   sodipodi:docname="texture.svg"
   inkscape:export-filename="/home/forest/projects/fgfs/pa28-181/Models/uv/texture.png"
   inkscape:export-xdpi="180"
   inkscape:export-ydpi="180">
  <defs
     id="defs4" />
  <sodipodi:namedview
     id="base"
     pagecolor="#ffffff"
     bordercolor="#666666"
     borderopacity="1.0"
     inkscape:pageopacity="0.0"
     inkscape:pageshadow="2"
     inkscape:zoom="4"
     inkscape:cx="497.59296"
     inkscape:cy="546.38529"
     inkscape:document-units="px"
     inkscape:current-layer="layer1"
     showgrid="true"
     inkscape:window-width="1366"
     inkscape:window-height="727"
     inkscape:window-x="0"
     inkscape:window-y="20"
     inkscape:window-maximized="0"
     showguides="true"
     inkscape:guide-bbox="true">
    <inkscape:grid
       type="xygrid"
       id="grid2985"
       empspacing="4"
       visible="true"
       enabled="true"
       snapvisiblegridlinesonly="true" />
    <sodipodi:guide
       orientation="0,1"
       position="288,0"
       id="guide3819" />
    <sodipodi:guide
       orientation="1,0"
       position="400,1040"
       id="guide3871" />
  </sodipodi:namedview>
  <metadata
     id="metadata7">
    <rdf:RDF>
      <cc:Work
         rdf:about="">
        <dc:format>image/svg+xml</dc:format>
        <dc:type
           rdf:resource="http://purl.org/dc/dcmitype/StillImage" />
        <dc:title></dc:title>
      </cc:Work>
    </rdf:RDF>
  </metadata>
  <g
     inkscape:label="Layer 1"
     inkscape:groupmode="layer"
     id="layer1"
     transform="translate(0,-28.362183)">
    <image
       y="28.362183"
       x="0"
       id="image3049"
       xlink:href="file:///home/forest/projects/fgfs/pa28-181/Models/uv/uv.png"
       height="1024"
       width="1024" />
    <rect
       style="fill:#e9e9e9;fill-opacity:1;stroke:none"
       id="rect3841"
       width="1024"
       height="1024"
       x="0"
       y="28.362183" />
    <path
       sodipodi:nodetypes="ccccccc"
       inkscape:connector-curvature="0"
       id="path3817"
       d="m 868,800.36218 8,-12 -8,-12 -160,-32 -220,-20 c -32,40 -32,96 0,136 z"
       style="fill:#c5c5c5;fill-opacity:1;stroke:none" />
    <path
       style="fill:#c5c5c5;fill-opacity:1;stroke:none"
       d="M 320,699.47983 C 286.0816,655.87034 363.6874,599.05407 483.4911,550.36218 l -27.4911,-14 -148,-4 -108,-24 -116,-120 -84,-4.88247 0,276.88247 172,16 z"
       id="path3835"
       inkscape:connector-curvature="0"
       sodipodi:nodetypes="cccccccccc" />
    <path
       sodipodi:nodetypes="ccccccccc"
       inkscape:connector-curvature="0"
       id="path3932"
       d="M 704,1031.4798 C 737.9184,987.87012 655.8037,929.05407 536,880.36218 l 0,-12 332,-68 68,-76 88,-8.88268 0,276.88252 -68,1.6e-4 z"
       style="fill:#c5c5c5;fill-opacity:1;stroke:none" />
    <path
       style="fill:#bb6525;fill-opacity:1;stroke:none"
       d="m 0,660.36218 0,-12.88245 c 352,-16 847.8216,-79.20028 856,80.88245 l -276,-12 -408,-40 z"
       id="path3837"
       inkscape:connector-curvature="0"
       sodipodi:nodetypes="cccccc" />
    <path
       sodipodi:nodetypes="cccccc"
       inkscape:connector-curvature="0"
       id="path3934"
       d="m 1024,988.36218 0,-8.88266 c -352,-16 -847.8216,-79.20028 -856,80.88268 l 276,-12 512,-56.00002 z"
       style="fill:#bb6525;fill-opacity:1;stroke:none" />
    <path
       sodipodi:nodetypes="cccccc"
       inkscape:connector-curvature="0"
       id="path3839"
       d="m 384,631.47973 c 40,48.0001 96,68.0001 168,84.0001 l -380,-39.11765 -172,-16 0,-28.88245 z"
       style="fill:#787878;fill-opacity:1;stroke:none" />
    <path
       style="fill:#787878;fill-opacity:1;stroke:none"
       d="m 640,963.47952 c -40,48.00028 -96,68.00028 -168,84.00028 l 248,-15.1176 240,-40.00002 64,-4 0,-24.88266 z"
       id="path3936"
       inkscape:connector-curvature="0"
       sodipodi:nodetypes="ccccccc" />
    <path
       style="fill:#969696;fill-opacity:1;stroke:none"
       d="M 160.5625,611.72971 C 107.8997,611.67311 53.6248,612.58107 0,615.47971 l 0,32.00002 c 142.9994,-7.7297 290.609,-9.3805 400,-8 342.3263,4.32 384,0.88245 456,88.88245 l 52,-8 C 895.8649,635.41598 743.4744,619.81417 400,615.47971 c -68.3694,-0.86279 -151.6661,-3.65568 -239.4375,-3.75 z"
       id="path3841"
       inkscape:connector-curvature="0"
       sodipodi:nodetypes="sccsccss" />
    <text
       sodipodi:linespacing="125%"
       id="text3847"
       y="652.36218"
       x="171.66727"
       style="font-size:20px;font-style:normal;font-weight:normal;line-height:125%;letter-spacing:0px;word-spacing:0px;opacity:0.8;fill:none;stroke:#ffffff;stroke-width:8;stroke-linejoin:round;stroke-miterlimit:4;stroke-opacity:1;stroke-dasharray:none;font-family:Sans"
       xml:space="preserve"><tspan
         style="font-size:60px;font-style:normal;font-variant:normal;font-weight:bold;font-stretch:normal;fill:none;stroke:#ffffff;stroke-width:8;stroke-linejoin:round;stroke-miterlimit:4;stroke-opacity:1;stroke-dasharray:none;font-family:Lato;-inkscape-font-specification:Lato"
         y="652.36218"
         x="171.66727"
         id="tspan3849"
         sodipodi:role="line">N2754</tspan></text>
    <text
       xml:space="preserve"
       style="font-size:20px;font-style:normal;font-weight:normal;line-height:125%;letter-spacing:0px;word-spacing:0px;fill:#202020;fill-opacity:1;stroke:none;font-family:Sans"
       x="171.66727"
       y="652.36218"
       id="text3843"
       sodipodi:linespacing="125%"><tspan
         sodipodi:role="line"
         id="tspan3845"
         x="171.66727"
         y="652.36218"
         style="font-size:60px;font-style:normal;font-variant:normal;font-weight:bold;font-stretch:normal;fill:#202020;fill-opacity:1;font-family:Lato;-inkscape-font-specification:Lato">N2754</tspan></text>
    <path
       sodipodi:nodetypes="sccsccss"
       inkscape:connector-curvature="0"
       id="path3938"
       d="m 863.4375,943.7295 c 52.6628,-0.0566 106.9377,0.85136 160.5625,3.75 l 0,32.00002 c -142.9994,-7.7297 -290.609,-9.3805 -400,-8 -342.3263,4.32 -384,0.88245 -456,88.88268 l -52,-8 c 12.1351,-84.94643 164.5256,-100.54824 508,-104.8827 68.3694,-0.86279 151.6661,-3.65568 239.4375,-3.75 z"
       style="fill:#969696;fill-opacity:1;stroke:none" />
    <text
       xml:space="preserve"
       style="font-size:20px;font-style:normal;font-weight:normal;line-height:125%;letter-spacing:0px;word-spacing:0px;opacity:0.8;fill:none;stroke:#ffffff;stroke-width:8;stroke-linejoin:round;stroke-miterlimit:4;stroke-opacity:1;stroke-dasharray:none;font-family:Sans"
       x="675.27209"
       y="984.36218"
       id="text3851"
       sodipodi:linespacing="125%"><tspan
         sodipodi:role="line"
         id="tspan3853"
         x="675.27209"
         y="984.36218"
         style="font-size:60px;font-style:normal;font-variant:normal;font-weight:bold;font-stretch:normal;fill:none;stroke:#ffffff;stroke-width:8;stroke-linejoin:round;stroke-miterlimit:4;stroke-opacity:1;stroke-dasharray:none;font-family:Lato;-inkscape-font-specification:Lato">N2754</tspan></text>
    <text
       sodipodi:linespacing="125%"
       id="text3855"
       y="984.36218"
       x="675.27209"
       style="font-size:20px;font-style:normal;font-weight:normal;line-height:125%;letter-spacing:0px;word-spacing:0px;fill:#202020;fill-opacity:1;stroke:none;font-family:Sans"
       xml:space="preserve"><tspan
         style="font-size:60px;font-style:normal;font-variant:normal;font-weight:bold;font-stretch:normal;fill:#202020;fill-opacity:1;font-family:Lato;-inkscape-font-specification:Lato"
         y="984.36218"
         x="675.27209"
         id="tspan3857"
         sodipodi:role="line">N2754</tspan></text>
    <path
       sodipodi:nodetypes="ccccc"
       inkscape:connector-curvature="0"
       id="path3863"
       d="m 400,380.36217 0,-191.99999 280,0 C 556.68721,219.19038 468,316.36217 518,356.36217 z"
       style="fill:#bb6525;fill-opacity:1;stroke:none" />
    <path
       style="fill:#bb6525;fill-opacity:1;stroke:none"
       d="m 0,280.36218 0,-140 188,0 c -83.85269,21.28614 -105.218496,86.29223 -120,116 z"
       id="path3865"
       inkscape:connector-curvature="0"
       sodipodi:nodetypes="ccccc" />
    <path
       sodipodi:nodetypes="ccccc"
       inkscape:connector-curvature="0"
       id="path3867"
       d="m 400,168.36218 0,-139.999997 -188,0 c 83.85269,21.28614 105.2185,86.292227 120,115.999997 z"
       style="fill:#bb6525;fill-opacity:1;stroke:none" />
    <path
       style="fill:#bb6525;fill-opacity:1;stroke:none"
       d="m 1024,220.36217 0,-191.999987 -280,0 c 123.31279,30.8282 212,127.999997 162,167.999987 z"
       id="path3869"
       inkscape:connector-curvature="0"
       sodipodi:nodetypes="ccccc" />
    <text
       xml:space="preserve"
       style="font-size:13.96744728px;font-style:normal;font-weight:normal;line-height:125%;letter-spacing:0px;word-spacing:0px;opacity:0.8;fill:none;stroke:#ffffff;stroke-width:5.58697891;stroke-linejoin:round;stroke-miterlimit:4;stroke-opacity:1;stroke-dasharray:none;font-family:Sans"
       x="140"
       y="212.36218"
       id="text3903"
       sodipodi:linespacing="125%"><tspan
         sodipodi:role="line"
         id="tspan3905"
         x="140"
         y="212.36218"
         style="font-size:41.90233994px;font-style:normal;font-variant:normal;font-weight:bold;font-stretch:normal;fill:none;stroke:#ffffff;stroke-width:5.58697891;stroke-linejoin:round;stroke-miterlimit:4;stroke-opacity:1;stroke-dasharray:none;font-family:Lato;-inkscape-font-specification:Lato">N2754</tspan></text>
    <text
       sodipodi:linespacing="125%"
       id="text3907"
       y="212.36218"
       x="140"
       style="font-size:13.96744728px;font-style:normal;font-weight:normal;line-height:125%;letter-spacing:0px;word-spacing:0px;fill:#202020;fill-opacity:1;stroke:none;font-family:Sans"
       xml:space="preserve"><tspan
         style="font-size:41.90233994px;font-style:normal;font-variant:normal;font-weight:bold;font-stretch:normal;fill:#202020;fill-opacity:1;font-family:Lato;-inkscape-font-specification:Lato"
         y="212.36218"
         x="140"
         id="tspan3909"
         sodipodi:role="line">N2754</tspan></text>
    <rect
       style="fill:#bb6525;fill-opacity:1;stroke:none"
       id="rect3911"
       width="48"
       height="24"
       x="840"
       y="340.36218" />
    <rect
       y="340.36218"
       x="888"
       height="24"
       width="48"
       id="rect3923"
       style="fill:#bb6525;fill-opacity:1;stroke:none" />
    <path
       style="fill:#969696;fill-opacity:1;stroke:none"
       d="m 516,348.36218 -45,20 c -2,8 -2,96 0,104 l 45,20 z"
       id="path3930"
       inkscape:connector-curvature="0"
       sodipodi:nodetypes="ccccc" />
    <path
       sodipodi:nodetypes="ccccc"
       inkscape:connector-curvature="0"
       id="path3928"
       d="m 644,348.36218 396,48 0,48 -396,48 z"
       style="fill:#787878;fill-opacity:1;stroke:none" />
    <path
       style="fill:#bb6525;fill-opacity:1;stroke:none"
       d="m 516,348.36218 220,0 c -24.15997,16.10665 -72.16104,43.8139 -72,72 0.15891,27.81284 48.15997,56.10665 72,72 l -220,0 c -12,-32 -12,-112 0,-144 z"
       id="rect3925"
       inkscape:connector-curvature="0"
       sodipodi:nodetypes="ccsccc" />
    <path
       style="fill:#c5c5c5;fill-opacity:1;stroke:none"
       d="m 268,892.36218 68,8 4,40 -84,0 z"
       id="rect3942"
       inkscape:connector-curvature="0"
       sodipodi:nodetypes="ccccc" />
    <path
       style="fill:#c5c5c5;stroke:none;stroke-width:1px;stroke-linecap:butt;stroke-linejoin:miter;stroke-opacity:1;fill-opacity:1"
       d="M 0,672 32,672 28,584 0,512 z"
       id="path3945"
       inkscape:connector-curvature="0"
       transform="translate(0,28.362183)"
       sodipodi:nodetypes="ccccc" />
    <path
       sodipodi:nodetypes="ccccc"
       inkscape:connector-curvature="0"
       id="path3964"
       d="m 316,512.36218 4,16 112,0 4,-56 c 0,0 -64,36 -120,40 z"
       style="fill:#bb6525;fill-opacity:1;stroke:none" />
    <path
       style="fill:#bb6525;fill-opacity:1;stroke:none"
       d="m 312,498.36218 -4,16 -112,0 -4,-56 c 0,0 64,36 120,40 z"
       id="path3970"
       inkscape:connector-curvature="0"
       sodipodi:nodetypes="ccccc" />
    <path
       style="fill:#bb6525;fill-opacity:1;stroke:none"
       d="m 908,584.36218 4,16 112,0 4,-56 c 0,0 -64,36 -120,40 z"
       id="path3972"
       inkscape:connector-curvature="0"
       sodipodi:nodetypes="ccccc" />
    <path
       sodipodi:nodetypes="ccccc"
       inkscape:connector-curvature="0"
       id="path3974"
       d="m 916,580.36218 -4,16 -112,0 -4,-56 c 0,0 64,36 120,40 z"
       style="fill:#bb6525;fill-opacity:1;stroke:none" />
    <path
       style="fill:#bb6525;fill-opacity:1;stroke:none"
       d="m 928,544.36218 -28,0 -16,-12 -4,-68 44,-8 z"
       id="path3976"
       inkscape:connector-curvature="0"
       sodipodi:nodetypes="cccccc" />
    <path
       sodipodi:nodetypes="ccccc"
       inkscape:connector-curvature="0"
       id="path3978"
       d="m 364,424.36218 -4,16 -112,0 0,-56 c 0,0 60,36 116,40 z"
       style="fill:#bb6525;fill-opacity:1;stroke:none"
       inkscape:transform-center-x="-58" />
    <path
       inkscape:transform-center-x="58"
       style="fill:#bb6525;fill-opacity:1;stroke:none"
       d="m 132,424.36218 4,16 112,0 0,-56 c 0,0 -60,36 -116,40 z"
       id="path3980"
       inkscape:connector-curvature="0"
       sodipodi:nodetypes="ccccc" />
    <path
       sodipodi:nodetypes="ccccc"
       inkscape:connector-curvature="0"
       id="path3982"
       d="m 336,284.36218 4,92 48,4 -4,-100 z"
       style="fill:#bb6525;fill-opacity:1;stroke:none"
       inkscape:transform-center-x="58" />
    <path
       style="fill:#787878;fill-opacity:1;stroke:none"
       d="m 224,696.36218 -52,76 -32,-20 8,-24 36,-48 z"
       id="path3986"
       inkscape:connector-curvature="0"
       sodipodi:nodetypes="cccccc" />
    <path
       sodipodi:nodetypes="cccccccc"
       inkscape:connector-curvature="0"
       id="path3988"
       d="m 452,532.36218 136,0 172,-20 0,-20 -196,4 -12,-12 -104,0 z"
       style="fill:#c5c5c5;fill-opacity:1;stroke:none" />
    <image
       y="28.362183"
       x="0"
       id="image4068"
       xlink:href="file:///home/forest/projects/fgfs/pa28-181/Models/uv/ao.png"
       height="1024"
       width="1024" />
    <path
       style="fill:#6e6e6e;stroke:none;stroke-width:1px;stroke-linecap:butt;stroke-linejoin:miter;stroke-opacity:1;fill-opacity:1"
       d="m 448,448 104,8 -8,52 -88,4 -16,-16 z"
       id="path4071"
       inkscape:connector-curvature="0"
       transform="translate(0,28.362183)" />
  </g>
</svg>
