<?xml version="1.0" encoding="UTF-8" standalone="no"?>
<!-- Created with Inkscape (http://www.inkscape.org/) -->

<svg
   xmlns:dc="http://purl.org/dc/elements/1.1/"
   xmlns:cc="http://creativecommons.org/ns#"
   xmlns:rdf="http://www.w3.org/1999/02/22-rdf-syntax-ns#"
   xmlns:svg="http://www.w3.org/2000/svg"
   xmlns="http://www.w3.org/2000/svg"
   xmlns:sodipodi="http://sodipodi.sourceforge.net/DTD/sodipodi-0.dtd"
   xmlns:inkscape="http://www.inkscape.org/namespaces/inkscape"
   width="32"
   height="32"
   id="svg2"
   version="1.1"
   inkscape:version="0.48.5 r10040"
   sodipodi:docname="logo-32.svg">
  <defs
     id="defs4">
    <clipPath
       clipPathUnits="userSpaceOnUse"
       id="clipPath3941">
      <path
         inkscape:connector-curvature="0"
         id="path3943"
         d="M 0,32 0,0 32,0 z"
         style="fill:#000000;fill-opacity:1;stroke:none" />
    </clipPath>
    <clipPath
       clipPathUnits="userSpaceOnUse"
       id="clipPath3945">
      <path
         style="fill:#000000;fill-opacity:1;stroke:none"
         d="m 6,1028.3622 c -1,0 -1.999992,1.0001 -2,1.9688 l 0,14.0312 4,0 0,-6 5,0 0,-4 -5,0 0,-2 7,0 0,-4 -9,0 z m 13,0 c -1,0 -2,1 -2,2 l 0,12 c 0,1 1,2 2,2 l 7,0 c 1,0 2,-1 2,-2 l 0,-7 -5,0 0,2 1,0 0,3 -3,0 0,-8 7,0 0,-2 c 0,-1 -1,-2 -2,-2 l -7,0 z"
         id="path3947"
         inkscape:connector-curvature="0" />
    </clipPath>
  </defs>
  <sodipodi:namedview
     id="base"
     pagecolor="#000000"
     bordercolor="#666666"
     borderopacity="1.0"
     inkscape:pageopacity="0"
     inkscape:pageshadow="2"
     inkscape:zoom="11.313708"
     inkscape:cx="33.581332"
     inkscape:cy="3.1365797"
     inkscape:document-units="px"
     inkscape:current-layer="layer1"
     showgrid="true"
     inkscape:window-width="1366"
     inkscape:window-height="727"
     inkscape:window-x="0"
     inkscape:window-y="20"
     inkscape:window-maximized="0"
     showguides="true"
     inkscape:guide-bbox="true">
    <inkscape:grid
       type="xygrid"
       id="grid2985"
       empspacing="4"
       visible="true"
       enabled="true"
       snapvisiblegridlinesonly="true" />
    <sodipodi:guide
       orientation="0,1"
       position="16,16"
       id="guide3953" />
    <sodipodi:guide
       orientation="1,0"
       position="16,16"
       id="guide3955" />
  </sodipodi:namedview>
  <metadata
     id="metadata7">
    <rdf:RDF>
      <cc:Work
         rdf:about="">
        <dc:format>image/svg+xml</dc:format>
        <dc:type
           rdf:resource="http://purl.org/dc/dcmitype/StillImage" />
        <dc:title></dc:title>
      </cc:Work>
    </rdf:RDF>
  </metadata>
  <g
     inkscape:label="Layer 1"
     inkscape:groupmode="layer"
     id="layer1"
     transform="translate(0,-1020.3622)">
    <path
       id="path4010"
       d="m 6,1027.3622 0,20 20,0 0,-20 -20,0 z m 4,2 2,0 0,2 2,0 0,2 -2,0 0,2 2,0 0,2 -2,0 0,2 2,0 0,2 -2,0 0,2 2,0 0,2 -2,0 0,-2 -2,0 0,2 -2,0 0,-2 2,0 0,-2 -2,0 0,-2 2,0 0,-2 -2,0 0,-2 2,0 0,-2 -2,0 0,-2 2,0 0,-2 z m 0,2 0,2 2,0 0,-2 -2,0 z m 0,4 0,2 2,0 0,-2 -2,0 z m 0,4 0,2 2,0 0,-2 -2,0 z m 6,-8 7,0 0,2 -5,0 0,3 4,0 0,2 -4,0 0,5 -2,0 0,-12 z"
       style="fill:#000000;fill-opacity:1;stroke:none"
       inkscape:connector-curvature="0" />
    <path
       style="fill:#ffffff;fill-opacity:1;stroke:none"
       d="M 6 6 L 6 26 L 26 26 L 26 6 L 6 6 z M 10 8 L 12 8 L 12 10 L 14 10 L 14 12 L 12 12 L 12 14 L 14 14 L 14 16 L 12 16 L 12 18 L 14 18 L 14 20 L 12 20 L 12 22 L 14 22 L 14 24 L 12 24 L 12 22 L 10 22 L 10 24 L 8 24 L 8 22 L 10 22 L 10 20 L 8 20 L 8 18 L 10 18 L 10 16 L 8 16 L 8 14 L 10 14 L 10 12 L 8 12 L 8 10 L 10 10 L 10 8 z M 10 10 L 10 12 L 12 12 L 12 10 L 10 10 z M 10 14 L 10 16 L 12 16 L 12 14 L 10 14 z M 10 18 L 10 20 L 12 20 L 12 18 L 10 18 z M 16 10 L 23 10 L 23 12 L 18 12 L 18 15 L 22 15 L 22 17 L 18 17 L 18 22 L 16 22 L 16 10 z "
       transform="translate(0,1020.3622)"
       id="rect4003" />
  </g>
</svg>
