<?xml version="1.0" encoding="UTF-8" standalone="no"?>
<!-- Created with Inkscape (http://www.inkscape.org/) -->

<svg
   xmlns:dc="http://purl.org/dc/elements/1.1/"
   xmlns:cc="http://creativecommons.org/ns#"
   xmlns:rdf="http://www.w3.org/1999/02/22-rdf-syntax-ns#"
   xmlns:svg="http://www.w3.org/2000/svg"
   xmlns="http://www.w3.org/2000/svg"
   xmlns:xlink="http://www.w3.org/1999/xlink"
   xmlns:sodipodi="http://sodipodi.sourceforge.net/DTD/sodipodi-0.dtd"
   xmlns:inkscape="http://www.inkscape.org/namespaces/inkscape"
   width="1024"
   height="384"
   id="svg2"
   version="1.1"
   inkscape:version="0.91 r13725"
   sodipodi:docname="prop-blade-specular.svg"
   inkscape:export-filename="/home/zlsa/projects/fgfs/pa28-181/Blender/textures/exterior/prop-blade-specular.png"
   inkscape:export-xdpi="90"
   inkscape:export-ydpi="90">
  <defs
     id="defs4" />
  <sodipodi:namedview
     id="base"
     pagecolor="#ffffff"
     bordercolor="#666666"
     borderopacity="1.0"
     inkscape:pageopacity="0.0"
     inkscape:pageshadow="2"
     inkscape:zoom="1"
     inkscape:cx="491.57545"
     inkscape:cy="131.08426"
     inkscape:document-units="px"
     inkscape:current-layer="layer1"
     showgrid="false"
     inkscape:window-width="1600"
     inkscape:window-height="859"
     inkscape:window-x="0"
     inkscape:window-y="20"
     inkscape:window-maximized="0"
     inkscape:object-nodes="true"
     inkscape:snap-smooth-nodes="true">
    <inkscape:grid
       type="xygrid"
       id="grid2985"
       empspacing="4"
       visible="true"
       enabled="true"
       snapvisiblegridlinesonly="true" />
  </sodipodi:namedview>
  <metadata
     id="metadata7">
    <rdf:RDF>
      <cc:Work
         rdf:about="">
        <dc:format>image/svg+xml</dc:format>
        <dc:type
           rdf:resource="http://purl.org/dc/dcmitype/StillImage" />
        <dc:title></dc:title>
      </cc:Work>
    </rdf:RDF>
  </metadata>
  <g
     inkscape:label="Layer 1"
     inkscape:groupmode="layer"
     id="layer1"
     transform="translate(0,-668.3622)">
    <rect
       style="fill:#5a5a5a;fill-opacity:1;stroke:none"
       id="rect2987"
       width="1024"
       height="184"
       x="0"
       y="864.36218" />
    <rect
       y="864.36218"
       x="992"
       height="184"
       width="32.000015"
       id="rect3757"
       style="fill:#888888;fill-opacity:1;stroke:none" />
    <rect
       style="fill:#888888;fill-opacity:1;stroke:none"
       id="rect3759"
       width="32.000015"
       height="184"
       x="928.42853"
       y="864.36218" />
    <image
       sodipodi:absref="/home/zlsa/projects/fgfs/pa28-181/Blender/textures/exterior/prop-blade-uv.png"
       xlink:href="prop-blade-uv.png"
       y="1052.3622"
       x="0"
       id="image3927"
       height="192"
       width="1024" />
    <g
       id="g3763"
       transform="matrix(0.36976169,0,0,0.36976169,333.19614,599.92831)">
      <path
         style="fill:#ffffff;fill-opacity:1"
         d="m 477.80001,1035.1481 c -10.53103,-0.8382 -21.20562,-4.1793 -30.20866,-9.4554 -5.52613,-3.2385 -9.56648,-6.3434 -14.55687,-11.1864 l -3.21552,-3.1207 -3.83448,0.6334 c -6.4449,1.0646 -10.67192,1.3564 -19.58447,1.3516 -18.27087,-0.01 -25.16587,-1.4269 -39.95879,-8.2123 -9.93637,-4.5578 -23.18692,-12.23688 -27.33261,-15.84012 -1.52718,-1.32736 -1.56776,-1.34279 -4.90438,-1.86471 -4.03942,-0.63185 -7.37937,-2.72118 -11.77746,-7.36746 -4.48793,-4.74118 -9.7159,-12.02119 -11.45971,-15.95776 -2.25566,-5.09203 -2.6874,-5.73703 -6.53509,-9.7631 -2.2358,-2.33946 -4.31424,-4.84057 -5.08394,-6.11782 -3.12621,-5.18767 -7.32118,-16.07931 -9.16547,-23.79683 -1.45955,-6.10755 -1.79098,-8.62929 -1.8122,-13.78832 -0.0183,-4.4446 0.0449,-5.09116 0.619,-6.33254 1.25458,-2.71293 3.45435,-3.68247 8.36065,-3.68494 3.62813,-0.002 4.48507,0.15167 15.75,2.82113 12.45801,2.9522 18.3827,4.02338 24.6,4.44767 4.84018,0.33031 7.09691,0.0915 7.84315,-0.83011 0.60663,-0.74915 0.68833,-1.42036 0.58687,-4.82121 -0.0551,-1.84835 0.0567,-2.49081 0.62642,-3.59898 0.38146,-0.74194 1.03106,-1.52551 1.44356,-1.74127 1.14557,-0.5992 4.74293,-0.29182 14.74903,1.26021 20.2201,3.13633 21.81991,3.10093 38.93706,-0.86146 11.04164,-2.556 14.66706,-3.18792 19.3675,-3.37586 2.93399,-0.1173 4.48712,-0.0354 6.25284,0.32977 4.75562,0.98348 9.59585,3.66634 13.7269,7.6086 1.25584,1.19845 2.4591,2.17899 2.67392,2.17899 0.21482,0 1.61732,-0.72761 3.11666,-1.6169 8.35451,-4.95524 17.01984,-7.94433 27.62609,-9.52955 1.66778,-0.24927 5.22319,-0.39733 9.29999,-0.38728 5.40328,0.0133 7.30397,0.1372 10.48242,0.68327 9.43825,1.62151 17.29015,4.39849 25.06758,8.86566 1.8975,1.08987 3.59065,1.98231 3.76254,1.98319 0.1719,8.7e-4 0.9144,-0.61707 1.65,-1.37325 3.68377,-3.78675 9.91354,-7.38918 14.5083,-8.38957 4.58076,-0.99735 11.43398,-0.30859 22.52916,2.26421 8.25324,1.91379 14.80628,3.27775 17.4,3.62165 5.22515,0.69281 11.52339,0.13002 28.65,-2.56008 7.97451,-1.25257 10.07181,-1.33452 11.21145,-0.43808 1.29246,1.01666 1.51032,1.7423 1.68033,5.59672 0.153,3.46925 0.20544,3.7136 0.9591,4.46724 0.78432,0.78433 0.85959,0.7967 4.64817,0.76383 4.47069,-0.0388 8.88144,-0.57279 15.40095,-1.86457 4.59645,-0.91073 5.72064,-1.1628 13.35,-2.99331 9.44112,-2.2652 10.69119,-2.48374 14.25,-2.49127 4.11501,-0.009 5.63598,0.37078 7.21941,1.80131 1.85685,1.67756 2.18895,3.26363 1.99425,9.52408 -0.12057,3.87639 -0.34572,6.00094 -0.9255,8.73255 -2.04483,9.63387 -6.0522,20.76523 -9.74787,27.07679 -0.7392,1.26242 -2.62464,3.6082 -4.46091,5.55 -4.35828,4.60877 -5.25669,5.80953 -6.37491,8.52045 -2.0175,4.89095 -5.80035,10.583 -11.12709,16.74291 -4.96803,5.74509 -8.51247,8.03862 -13.85463,8.96508 -2.37867,0.41252 -2.79024,0.58839 -4.34967,1.8587 -7.91184,6.44492 -28.82688,17.31534 -40.57308,21.08754 -10.56555,3.393 -32.52897,3.9441 -47.93107,1.2027 l -2.18108,-0.3882 -3.21892,3.2012 c -5.89876,5.8663 -11.18406,9.6545 -18.51893,13.2733 -5.29042,2.6102 -8.85996,3.9597 -13.8,5.2174 -8.22104,2.0931 -15.75673,2.7623 -23.84999,2.1182 z"
         id="path3769"
         inkscape:connector-curvature="0" />
    </g>
    <rect
       y="672.36218"
       x="0"
       height="184"
       width="1024"
       id="rect4581"
       style="fill:#5a5a5a;fill-opacity:1;stroke:none" />
    <rect
       style="fill:#888888;fill-opacity:1;stroke:none"
       id="rect4583"
       width="32.000015"
       height="184"
       x="992"
       y="672.36218" />
    <rect
       y="672.36218"
       x="928.42853"
       height="184"
       width="32.000015"
       id="rect4585"
       style="fill:#888888;fill-opacity:1;stroke:none" />
  </g>
</svg>
