<?xml version="1.0" encoding="UTF-8" standalone="no"?>
<!-- Created with Inkscape (http://www.inkscape.org/) -->

<svg
   xmlns:dc="http://purl.org/dc/elements/1.1/"
   xmlns:cc="http://creativecommons.org/ns#"
   xmlns:rdf="http://www.w3.org/1999/02/22-rdf-syntax-ns#"
   xmlns:svg="http://www.w3.org/2000/svg"
   xmlns="http://www.w3.org/2000/svg"
   xmlns:xlink="http://www.w3.org/1999/xlink"
   xmlns:sodipodi="http://sodipodi.sourceforge.net/DTD/sodipodi-0.dtd"
   xmlns:inkscape="http://www.inkscape.org/namespaces/inkscape"
   width="1024"
   height="384"
   id="svg2"
   version="1.1"
   inkscape:version="0.91 r13725"
   sodipodi:docname="prop-blade.svg"
   inkscape:export-filename="/home/forest/projects/fgfs/pa28-181/Models/textures/exterior/prop-blade.png"
   inkscape:export-xdpi="180"
   inkscape:export-ydpi="180">
  <defs
     id="defs4" />
  <sodipodi:namedview
     id="base"
     pagecolor="#ffffff"
     bordercolor="#666666"
     borderopacity="1.0"
     inkscape:pageopacity="0.0"
     inkscape:pageshadow="2"
     inkscape:zoom="8"
     inkscape:cx="993.72579"
     inkscape:cy="19.631522"
     inkscape:document-units="px"
     inkscape:current-layer="layer1"
     showgrid="true"
     inkscape:window-width="1600"
     inkscape:window-height="859"
     inkscape:window-x="0"
     inkscape:window-y="20"
     inkscape:window-maximized="0"
     inkscape:object-nodes="true"
     inkscape:snap-smooth-nodes="true">
    <inkscape:grid
       type="xygrid"
       id="grid2985"
       empspacing="4"
       visible="true"
       enabled="true"
       snapvisiblegridlinesonly="true" />
  </sodipodi:namedview>
  <metadata
     id="metadata7">
    <rdf:RDF>
      <cc:Work
         rdf:about="">
        <dc:format>image/svg+xml</dc:format>
        <dc:type
           rdf:resource="http://purl.org/dc/dcmitype/StillImage" />
        <dc:title />
      </cc:Work>
    </rdf:RDF>
  </metadata>
  <g
     inkscape:label="Layer 1"
     inkscape:groupmode="layer"
     id="layer1"
     transform="translate(0,-668.3622)">
    <rect
       style="fill:#a8a8a8;fill-opacity:1;stroke:none"
       id="rect2987"
       width="1024"
       height="184"
       x="0"
       y="864.36218" />
    <image
       sodipodi:absref="/home/zlsa/projects/fgfs/piper-archer/Blender/textures/exterior/prop-blade-uv.png"
       xlink:href="prop-blade-uv.png"
       y="1052.3622"
       x="0"
       id="image3927"
       height="192"
       width="1024" />
    <g
       id="g3763"
       transform="matrix(0.36976169,0,0,0.36976169,333.19614,599.92831)">
      <path
         style="fill:#d4d4d4;fill-opacity:1"
         d="m 477.80001,1035.1481 c -10.53103,-0.8382 -21.20562,-4.1793 -30.20866,-9.4554 -5.52613,-3.2385 -9.56648,-6.3434 -14.55687,-11.1864 l -3.21552,-3.1207 -3.83448,0.6334 c -6.4449,1.0646 -10.67192,1.3564 -19.58447,1.3516 -18.27087,-0.01 -25.16587,-1.4269 -39.95879,-8.2123 -9.93637,-4.5578 -23.18692,-12.23688 -27.33261,-15.84012 -1.52718,-1.32736 -1.56776,-1.34279 -4.90438,-1.86471 -4.03942,-0.63185 -7.37937,-2.72118 -11.77746,-7.36746 -4.48793,-4.74118 -9.7159,-12.02119 -11.45971,-15.95776 -2.25566,-5.09203 -2.6874,-5.73703 -6.53509,-9.7631 -2.2358,-2.33946 -4.31424,-4.84057 -5.08394,-6.11782 -3.12621,-5.18767 -7.32118,-16.07931 -9.16547,-23.79683 -1.45955,-6.10755 -1.79098,-8.62929 -1.8122,-13.78832 -0.0183,-4.4446 0.0449,-5.09116 0.619,-6.33254 1.25458,-2.71293 3.45435,-3.68247 8.36065,-3.68494 3.62813,-0.002 4.48507,0.15167 15.75,2.82113 12.45801,2.9522 18.3827,4.02338 24.6,4.44767 4.84018,0.33031 7.09691,0.0915 7.84315,-0.83011 0.60663,-0.74915 0.68833,-1.42036 0.58687,-4.82121 -0.0551,-1.84835 0.0567,-2.49081 0.62642,-3.59898 0.38146,-0.74194 1.03106,-1.52551 1.44356,-1.74127 1.14557,-0.5992 4.74293,-0.29182 14.74903,1.26021 20.2201,3.13633 21.81991,3.10093 38.93706,-0.86146 11.04164,-2.556 14.66706,-3.18792 19.3675,-3.37586 2.93399,-0.1173 4.48712,-0.0354 6.25284,0.32977 4.75562,0.98348 9.59585,3.66634 13.7269,7.6086 1.25584,1.19845 2.4591,2.17899 2.67392,2.17899 0.21482,0 1.61732,-0.72761 3.11666,-1.6169 8.35451,-4.95524 17.01984,-7.94433 27.62609,-9.52955 1.66778,-0.24927 5.22319,-0.39733 9.29999,-0.38728 5.40328,0.0133 7.30397,0.1372 10.48242,0.68327 9.43825,1.62151 17.29015,4.39849 25.06758,8.86566 1.8975,1.08987 3.59065,1.98231 3.76254,1.98319 0.1719,8.7e-4 0.9144,-0.61707 1.65,-1.37325 3.68377,-3.78675 9.91354,-7.38918 14.5083,-8.38957 4.58076,-0.99735 11.43398,-0.30859 22.52916,2.26421 8.25324,1.91379 14.80628,3.27775 17.4,3.62165 5.22515,0.69281 11.52339,0.13002 28.65,-2.56008 7.97451,-1.25257 10.07181,-1.33452 11.21145,-0.43808 1.29246,1.01666 1.51032,1.7423 1.68033,5.59672 0.153,3.46925 0.20544,3.7136 0.9591,4.46724 0.78432,0.78433 0.85959,0.7967 4.64817,0.76383 4.47069,-0.0388 8.88144,-0.57279 15.40095,-1.86457 4.59645,-0.91073 5.72064,-1.1628 13.35,-2.99331 9.44112,-2.2652 10.69119,-2.48374 14.25,-2.49127 4.11501,-0.009 5.63598,0.37078 7.21941,1.80131 1.85685,1.67756 2.18895,3.26363 1.99425,9.52408 -0.12057,3.87639 -0.34572,6.00094 -0.9255,8.73255 -2.04483,9.63387 -6.0522,20.76523 -9.74787,27.07679 -0.7392,1.26242 -2.62464,3.6082 -4.46091,5.55 -4.35828,4.60877 -5.25669,5.80953 -6.37491,8.52045 -2.0175,4.89095 -5.80035,10.583 -11.12709,16.74291 -4.96803,5.74509 -8.51247,8.03862 -13.85463,8.96508 -2.37867,0.41252 -2.79024,0.58839 -4.34967,1.8587 -7.91184,6.44492 -28.82688,17.31534 -40.57308,21.08754 -10.56555,3.393 -32.52897,3.9441 -47.93107,1.2027 l -2.18108,-0.3882 -3.21892,3.2012 c -5.89876,5.8663 -11.18406,9.6545 -18.51893,13.2733 -5.29042,2.6102 -8.85996,3.9597 -13.8,5.2174 -8.22104,2.0931 -15.75673,2.7623 -23.84999,2.1182 z"
         id="path3769"
         inkscape:connector-curvature="0" />
      <path
         style="opacity:1;fill:#149010;fill-opacity:1;fill-rule:nonzero;stroke:none;stroke-width:0.54088891;stroke-linecap:round;stroke-linejoin:round;stroke-miterlimit:4;stroke-dasharray:none;stroke-dashoffset:0;stroke-opacity:1"
         d="m 512,76 a 19.999994,19.999994 0 0 0 -20,20 19.999994,19.999994 0 0 0 20,20 19.999994,19.999994 0 0 0 20,-20 19.999994,19.999994 0 0 0 -20,-20 z m 0,7 a 12.999994,12.999994 0 0 1 13,13 12.999994,12.999994 0 0 1 -13,13 12.999994,12.999994 0 0 1 -13,-13 12.999994,12.999994 0 0 1 13,-13 z"
         transform="matrix(2.7044446,0,0,2.7044446,-901.1105,704.32902)"
         id="path4573"
         inkscape:connector-curvature="0" />
      <path
         style="fill:#353535;fill-opacity:1;stroke:none;stroke-width:0.54088891;stroke-miterlimit:4;stroke-dasharray:none;stroke-opacity:1"
         d="m 476.60001,1020.7314 c -10.21369,-1.1484 -19.95349,-4.9784 -28.21322,-11.0946 -3.49486,-2.5878 -9.04357,-8.1136 -11.38678,-11.33964 -1.0725,-1.47659 -2.13555,-2.76572 -2.36232,-2.86475 -0.53613,-0.2341 -2.61776,0.74165 -7.18674,3.36873 -2.03448,1.16979 -4.63489,2.49406 -5.77868,2.94276 l -2.07962,0.816 -0.7496,-0.7043 -0.7496,-0.7042 -3.99477,0.9554 c -2.19713,0.5255 -4.55469,0.9554 -5.23902,0.9554 -1.08813,0 -1.30462,-0.1168 -1.72542,-0.9305 -0.40505,-0.7833 -0.60798,-0.9029 -1.2827,-0.7563 -0.44084,0.096 -4.22097,0.3365 -8.40029,0.5348 -8.195,0.3888 -8.13561,0.3971 -8.14665,-1.1363 -0.002,-0.351 -0.17334,-0.77825 -0.37959,-0.94935 -0.20625,-0.1711 -3.885,-0.61073 -8.175,-0.97695 -4.29,-0.36623 -7.98039,-0.80895 -8.20086,-0.98384 -0.24426,-0.19375 -0.33714,-0.63661 -0.23774,-1.13361 0.0947,-0.47371 0.007,-0.94547 -0.21004,-1.12535 -0.20525,-0.17033 -3.20327,-1.13527 -6.66227,-2.14429 -6.50552,-1.89774 -12.039,-3.92818 -13.1442,-4.82312 -0.47124,-0.38158 -0.61176,-0.7851 -0.54466,-1.56396 0.11232,-1.30372 -0.4868,-1.78885 -5.30116,-4.29258 -3.42932,-1.78344 -7.31677,-4.57447 -7.49607,-5.38187 -0.082,-0.36941 0.7103,-0.4368 5.13581,-0.4368 l 5.23281,0 1.58467,1.275 c 0.87156,0.70125 3.35115,2.1525 5.51019,3.225 3.88793,1.93132 3.92734,1.96119 4.11436,3.11841 0.16027,0.99173 1.0956,2.2011 1.76916,2.28749 0.0825,0.0106 3.795,0.93285 8.25,2.04949 l 8.1,2.03025 0,1.30707 c 0,1.6738 -0.1326,1.63873 7.9957,2.11493 6.40331,0.37514 7.4543,0.56072 7.4543,1.31618 0,0.93138 0.71037,1.02402 4.8,0.62599 8.93366,-0.86948 9.45131,-0.8777 10.41482,-0.16535 0.78131,0.57765 1.01837,0.61064 2.30918,0.32137 0.79116,-0.17731 2.96506,-0.92615 4.83087,-1.6641 1.86582,-0.73795 3.58584,-1.34173 3.82227,-1.34173 0.23642,0 0.68113,0.27765 0.98823,0.61699 0.40578,0.44837 0.76595,0.5649 1.3179,0.42636 2.01569,-0.5059 8.7174,-4.39159 8.71602,-5.05359 -3e-4,-0.18687 -0.52404,-1.55476 -1.16367,-3.03976 -1.47,-3.41284 -3.11177,-8.51885 -2.90901,-9.04722 0.1674,-0.43625 3.36033,-0.57659 3.94022,-0.17319 0.17425,0.12123 0.83387,1.70541 1.46582,3.52041 4.55944,13.09512 13.80078,23.68072 26.15637,29.96122 5.92475,3.0117 10.93387,4.4728 18.64899,5.4399 6.93631,0.8694 13.19164,0.1993 21.14666,-2.2654 12.40205,-3.8425 23.94739,-13.4135 30.28921,-25.10966 1.38239,-2.54951 3.61132,-7.84511 4.19895,-9.97606 0.45902,-1.66456 0.69332,-1.8 3.1139,-1.8 2.13873,0 2.21326,0.0243 2.21326,0.72295 0,0.95824 -1.5604,5.69974 -2.91308,8.8518 l -1.08347,2.52474 0.87327,0.705 c 1.37783,1.11234 7.34291,3.99551 8.26641,3.99551 0.52873,0 0.95373,-0.22042 1.15687,-0.6 0.17661,-0.33 0.48308,-0.6 0.68105,-0.6 0.19797,0 1.71197,0.60185 3.36445,1.33744 3.41904,1.52197 5.99639,2.26256 7.87397,2.26256 1.0885,0 1.34753,-0.11882 1.63512,-0.75 0.42499,-0.93276 0.8656,-0.94334 6.24541,-0.15 5.2623,0.77601 6.8024,0.7786 7.45192,0.0125 0.4191,-0.49431 1.12951,-0.63635 4.48014,-0.89576 4.07383,-0.31539 9.52602,-1.27576 10.86794,-1.91432 0.47406,-0.22559 0.78441,-0.65432 0.84354,-1.16534 0.10089,-0.87203 0.19995,-0.92119 2.90646,-1.4425 5.44272,-1.04835 14.65188,-3.72886 15.675,-4.56252 0.20625,-0.16806 0.375,-0.62987 0.375,-1.02625 0,-0.48493 0.23583,-0.81035 0.72087,-0.99477 0.39645,-0.15073 0.81282,-0.42286 0.9252,-0.60473 0.11241,-0.18186 0.76677,-0.68182 1.45416,-1.11102 0.68736,-0.4292 2.32977,-1.60498 3.64977,-2.61285 l 2.4,-1.83247 3.3,-0.15 3.3,-0.15 0.70356,-2.7 c 0.38697,-1.485 0.83667,-2.86204 0.99936,-3.06009 0.16269,-0.19804 1.37745,-1.17679 2.69946,-2.175 2.42958,-1.83446 3.69822,-2.25333 4.04979,-1.33711 0.1503,0.39161 -0.88932,6.34115 -1.31025,7.49835 -0.2211,0.60785 -4.17,3.66199 -6.5622,5.07529 -2.8863,1.70521 -7.04772,4.55821 -7.53465,5.16561 -0.26415,0.32951 -0.27009,0.62904 -0.0231,1.17099 0.21165,0.46449 0.22767,0.83238 0.0442,1.01579 -0.52062,0.52061 -8.75595,4.16669 -11.74068,5.198 -2.47917,0.85664 -5.25846,1.60226 -8.05548,2.16113 -0.40263,0.0805 -0.73098,0.47799 -0.90978,1.10143 -0.26973,0.94046 -0.38196,0.99976 -3.12,1.6486 -1.56213,0.37018 -5.10292,1.06305 -7.86845,1.53971 -4.42493,0.76267 -5.11392,0.95915 -5.74241,1.63735 -0.3928,0.4238 -1.22378,0.8662 -1.84662,0.983 -1.17203,0.2199 -9.36955,-0.012 -12.64827,-0.3579 -1.86038,-0.1962 -1.86701,-0.1941 -2.4,0.7525 -0.29396,0.522 -0.85164,1.0309 -1.2393,1.1308 -0.83685,0.2156 -5.74916,-0.9366 -7.24685,-1.6999 -0.57843,-0.2947 -1.62881,-0.6913 -2.33419,-0.8812 -1.14195,-0.3075 -1.41102,-0.2731 -2.45536,0.3138 l -1.17286,0.6592 -2.49295,-0.9929 c -1.37113,-0.5461 -4.73927,-2.05144 -7.48477,-3.34519 -2.74555,-1.29375 -5.19983,-2.35227 -5.454,-2.35227 -0.25418,0 -1.42186,1.27687 -2.59485,2.8375 -9.80156,13.04066 -24.33838,21.27856 -40.5094,22.95646 -3.33357,0.3459 -8.80403,0.3346 -11.99999,-0.025 z m -0.40117,-19.9258 c -1.29314,-0.2172 -3.04814,-0.6737 -3.9,-1.01443 -0.85186,-0.34069 -2.42633,-0.89093 -3.49883,-1.22275 -5.82781,-1.80306 -13.47838,-7.83074 -17.21501,-13.56323 -0.90623,-1.39028 -2.20971,-3.56972 -2.89661,-4.84319 -1.56029,-2.89269 -1.41614,-3.19982 1.50185,-3.19982 2.32208,0 2.34609,0.0183 4.02696,3.07649 5.95508,10.83456 19.08914,17.55154 31.57273,16.14683 11.32022,-1.27381 20.05723,-7.25058 26.036,-17.81058 l 0.81374,-1.43727 2.30191,0.0873 c 1.8923,0.0717 2.31937,0.17867 2.39999,0.60094 0.0539,0.28252 -0.46514,1.63252 -1.1535,3 -2.3249,4.61855 -5.69158,8.87997 -8.97854,11.3647 -1.07774,0.8147 -2.63453,2.02041 -3.45953,2.67934 -3.24153,2.58905 -9.59111,5.17451 -15.15,6.16887 -2.82122,0.5046 -9.30336,0.4873 -12.40116,-0.033 z m 2.12617,-9.65108 c -0.34626,-0.0899 -0.525,-0.42924 -0.525,-0.99663 0,-1.04585 0.45387,-1.40197 0.86287,-0.67702 0.2401,0.42557 0.37512,0.45668 0.67844,0.15631 0.6035,-0.59763 0.85869,-0.4416 0.85869,0.525 0,0.495 -0.12396,0.9 -0.27547,0.9 -0.1515,0 -0.45525,0.0514 -0.675,0.11434 -0.21974,0.0629 -0.63578,0.053 -0.92453,-0.022 z m 2.9385,-0.76734 c 0.11216,-0.37125 0.32376,-0.80325 0.47021,-0.96 0.32737,-0.35037 0.72064,0.0261 1.00278,0.96 0.18122,0.59982 0.0992,0.675 -0.73649,0.675 -0.83569,0 -0.91772,-0.0752 -0.7365,-0.675 z m 3.93625,0.4378 c -0.14149,-0.21893 -0.50004,-0.30793 -0.825,-0.20479 -0.46446,0.14742 -0.57476,0.0346 -0.57476,-0.58779 0,-0.80111 0.43754,-1.04738 0.70217,-0.39522 0.11514,0.28377 0.22673,0.26764 0.45868,-0.0663 0.42331,-0.60945 0.70364,-0.23252 0.58673,0.78888 -0.0669,0.58455 -0.17622,0.73075 -0.34782,0.46523 z m 1.38036,-0.2878 c -0.0794,-0.20625 -0.0706,-0.56702 0.0194,-0.80171 0.2467,-0.64288 1.32005,-0.22797 1.47244,0.56917 0.10977,0.57423 0.009,0.6814 -0.60802,0.6478 -0.40674,-0.0221 -0.80448,-0.20901 -0.88385,-0.41526 z m -1.38011,-2.975 c -0.11001,-0.11 -0.20001,-0.3395 -0.20001,-0.51 0,-0.18798 0.13974,-0.17027 0.355,0.045 0.19526,0.19525 0.28526,0.42475 0.2,0.51 -0.0853,0.0852 -0.245,0.065 -0.35499,-0.045 z m -5.9,-1.11327 c 0,-1.15222 0.73086,-1.56559 0.9932,-0.56173 0.13066,0.5 0.13885,0.5 0.172,0 0.0599,-0.90316 0.6348,-0.57205 0.6348,0.36559 0,0.6717 -0.11154,0.84778 -0.45382,0.71643 -0.24961,-0.0958 -0.65461,-0.008 -0.9,0.19615 -0.38095,0.31615 -0.44618,0.2114 -0.44618,-0.71644 z m 3.08762,-0.0667 c 0.33631,-1.0958 0.94768,-1.34939 1.19335,-0.495 0.083,0.28875 0.24303,0.74775 0.35557,1.02 0.16692,0.4038 0.0143,0.495 -0.82867,0.495 l -1.0333,0 0.31305,-1.02 z m 3.95046,0.25621 c 0.01,-0.66718 -0.11801,-0.82163 -0.66309,-0.80239 -0.37125,0.0131 -0.675,-0.0882 -0.675,-0.225 0,-0.13685 0.33276,-0.24882 0.73945,-0.24882 0.9645,0 1.60771,1.08142 1.00292,1.6862 -0.35494,0.35495 -0.41445,0.29459 -0.40428,-0.40999 z m 1.41791,-0.12811 c 0.10349,-1.04796 0.844,-1.57232 0.844,-0.59764 0,0.82278 -0.30537,1.54954 -0.6511,1.54954 -0.1578,0 -0.24461,-0.42835 -0.1929,-0.9519 z m -10.36415,-0.45626 c -0.33785,-0.33785 -0.20577,-0.69184 0.25816,-0.69184 0.2475,0 0.45,0.12703 0.45,0.28229 0,0.3783 -0.46848,0.64923 -0.70816,0.40955 z M 336.35001,975.17857 c -0.98992,-0.40516 -1.69151,-1.40019 -1.85694,-2.63358 -0.16339,-1.21818 1.12638,-6.73329 1.75054,-7.48534 0.40379,-0.48654 6.56786,-0.56601 7.04306,-0.0908 0.20889,0.20889 0.20801,0.78824 -0.003,1.81702 -0.44037,2.14977 -0.13739,2.50411 2.238,2.61734 2.61491,0.12464 3.21036,-0.0787 3.78995,-1.29409 0.66475,-1.394 0.44398,-1.75753 -3.33581,-5.49277 -4.86303,-4.80571 -5.42573,-6.38003 -3.94673,-11.04223 0.64105,-2.02077 0.99965,-2.64659 2.09511,-3.65635 1.84331,-1.69911 2.0179,-1.72253 12.07753,-1.6202 6.33502,0.0645 6.35442,0.0667 7.2648,0.8327 1.34916,1.13525 1.44398,2.28633 0.499,6.05758 -0.44226,1.76498 -0.94702,3.38124 -1.12168,3.59169 -0.22226,0.26778 -1.30869,0.38265 -3.61903,0.38265 l -3.30144,0 0.14438,-1.50255 c 0.21365,-2.22348 -0.0851,-2.47089 -2.93862,-2.43386 -2.03736,0.0264 -2.4549,0.12231 -2.90442,0.66688 -0.28875,0.3498 -0.525,0.86461 -0.525,1.14403 0,0.79454 1.48697,2.91053 4.3397,6.1755 1.44167,1.65 2.90815,3.58144 3.25884,4.29209 l 0.63763,1.2921 -0.67316,2.60399 c -0.77018,2.9793 -1.6936,4.33589 -3.6588,5.37511 -1.2586,0.66556 -1.535,0.68612 -8.9764,0.66769 -4.2228,-0.0105 -7.94781,-0.12952 -8.27781,-0.26459 z m 105.97877,-0.18601 c -0.93733,-0.50859 -1.72877,-1.85396 -1.72877,-2.93874 0,-1.32534 1.53668,-6.63214 2.03179,-7.01664 0.59379,-0.46113 6.40415,-0.51905 6.85487,-0.0683 0.20888,0.20889 0.20801,0.78824 -0.003,1.81702 -0.43968,2.14637 -0.13587,2.5041 2.22242,2.61694 1.04169,0.0498 2.25889,-0.0605 2.7049,-0.24528 0.79751,-0.33034 1.48875,-1.38703 1.48875,-2.27584 0,-0.24876 -1.60042,-2.0994 -3.55649,-4.11254 -5.03951,-5.18657 -5.429,-6.16288 -4.25778,-10.6728 0.65006,-2.50314 1.70723,-4.03292 3.49278,-5.05423 1.13117,-0.647 1.44689,-0.67023 9.17347,-0.675 l 8.00195,-0.005 0.91282,0.76808 c 1.35067,1.13652 1.44068,2.27252 0.48524,6.12375 -0.44856,1.80809 -0.98973,3.43198 -1.2026,3.60864 -0.23608,0.19594 -1.59844,0.28773 -3.49322,0.23537 l -3.1062,-0.0858 0,-1.69884 c 0,-0.93436 -0.11004,-1.80939 -0.24452,-1.94452 -0.13449,-0.13512 -1.34675,-0.22457 -2.69392,-0.19878 -2.125,0.0407 -2.51974,0.13376 -2.98049,0.70276 -0.29209,0.36072 -0.53107,0.88446 -0.53107,1.16388 0,0.80408 1.54961,3.03905 3.87848,5.59384 2.34843,2.57625 3.84585,4.67572 4.12327,5.78108 0.27495,1.09549 -1.00541,5.44898 -1.95593,6.65058 -0.45683,0.5775 -1.42513,1.35375 -2.15178,1.725 -1.27024,0.64897 -1.61658,0.67454 -8.98261,0.66299 -6.19088,-0.01 -7.81906,-0.0975 -8.48266,-0.45761 z m -70.66008,-0.0312 c -0.56684,-0.22806 -1.26869,-1.74672 -1.26869,-2.74516 0,-0.48166 1.08,-4.69098 2.4,-9.35405 1.32,-4.66307 2.4,-8.66319 2.4,-8.88915 0,-0.22597 -0.16875,-0.42624 -0.375,-0.44506 -1.37334,-0.12527 -2.11646,-0.25725 -2.26072,-0.4015 -0.26126,-0.26127 1.47088,-6.1566 1.94955,-6.63527 0.35567,-0.35567 2.22225,-0.42902 10.91701,-0.42902 9.35497,0 10.50797,0.0521 10.67293,0.48196 0.23667,0.61673 -0.81297,6.38831 -1.20596,6.6312 -0.16293,0.10069 -2.51339,0.20631 -5.22326,0.23471 -3.88567,0.0407 -4.98305,0.14152 -5.19204,0.47688 -0.37309,0.59869 -0.68396,2.8684 -0.44568,3.25395 0.12053,0.19502 1.42273,0.3213 3.31317,0.3213 1.87242,0 3.19305,0.12696 3.31133,0.31834 0.20138,0.32584 -0.9294,5.40994 -1.41381,6.35666 -0.23034,0.45015 -0.7269,0.52565 -3.48308,0.52959 -1.76794,0.002 -3.37567,0.1071 -3.57274,0.23239 -0.54592,0.34707 -1.02526,2.81111 -0.6377,3.27809 0.23601,0.28438 1.59452,0.38493 5.20064,0.38493 3.86091,0 4.9142,0.0861 5.03919,0.41181 0.14963,0.38992 -0.83952,5.39581 -1.17273,5.93494 -0.16479,0.26663 -18.29538,0.31682 -18.95241,0.0525 z m 31.5838,-0.0952 c -0.17132,-0.27719 0.70386,-3.56382 4.97798,-18.69414 0.64324,-2.27706 1.16953,-4.32481 1.16953,-4.55055 0,-0.22575 -0.46946,-1.39004 -1.04324,-2.58731 -0.78556,-1.6392 -0.96173,-2.27506 -0.71326,-2.57445 0.48131,-0.57994 9.34211,-0.56911 9.92335,0.0121 0.22534,0.22535 1.94413,3.46535 3.81954,7.2 1.87541,3.73466 3.51684,6.79029 3.64762,6.79029 0.13078,0 0.37882,-0.50625 0.55119,-1.125 0.17237,-0.61875 1.01109,-3.69 1.86383,-6.825 0.85273,-3.135 1.75635,-5.86875 2.00803,-6.075 0.65281,-0.53495 7.34822,-0.52109 7.79409,0.0161 0.23804,0.28683 0.0846,1.30695 -0.5753,3.825 -1.86387,7.11213 -5.74288,21.49693 -6.22479,23.08386 l -0.50106,1.65 -4.17664,0 -4.17663,0 -2.69218,-5.18539 c -1.4807,-2.85197 -2.84121,-5.1383 -3.02337,-5.08073 -0.18215,0.0576 -0.77706,1.51349 -1.32203,3.23539 -0.54497,1.7219 -1.28747,4.00823 -1.65,5.08073 l -0.65915,1.95 -4.40242,0.0829 c -2.81073,0.0529 -4.47208,-0.0298 -4.59509,-0.22885 z m 74.12417,-0.62705 c -0.47446,-0.56387 -0.77666,-1.28932 -0.77666,-1.86443 0,-0.51778 1.08,-4.74743 2.4,-9.39923 1.32,-4.6518 2.4,-8.67281 2.4,-8.93557 0,-0.3427 -0.28643,-0.47775 -1.01327,-0.47775 -1.74348,0 -1.84041,-0.47449 -0.80437,-3.93755 0.50667,-1.69359 1.08916,-3.18591 1.29443,-3.31626 0.20526,-0.13035 5.06869,-0.23907 10.80762,-0.2416 9.37684,-0.004 10.45346,0.045 10.62233,0.4851 0.22275,0.58047 -0.71522,6.13878 -1.10102,6.52458 -0.14681,0.14681 -2.51951,0.3009 -5.27267,0.34242 -3.83768,0.0579 -5.06522,0.17091 -5.26064,0.4844 -0.36504,0.58558 -0.67066,2.85724 -0.43558,3.23761 0.12053,0.19502 1.42273,0.3213 3.31316,0.3213 1.87242,0 3.19306,0.12696 3.31134,0.31834 0.20138,0.32584 -0.9294,5.40994 -1.41381,6.35666 -0.23034,0.45015 -0.72691,0.52565 -3.48308,0.52959 -1.76794,0.002 -3.36096,0.10378 -3.54003,0.225 -0.4172,0.28243 -1.0284,2.71096 -0.81937,3.25567 0.12673,0.33026 1.18788,0.41474 5.20935,0.41474 3.14368,0 5.12234,0.11674 5.24131,0.30923 0.19044,0.30814 -0.58457,4.33262 -1.08145,5.61577 l -0.26139,0.675 -9.27977,0 -9.27976,0 -0.77667,-0.92302 z m 32.14434,0.54986 c -0.0821,-0.21383 0.37536,-2.2761 1.01648,-4.58281 0.64112,-2.30672 1.9753,-7.09653 2.96484,-10.64403 2.41008,-8.64014 2.33043,-7.86543 1.07745,-10.47996 -0.80317,-1.67592 -0.98483,-2.32297 -0.73628,-2.62246 0.24677,-0.29733 1.44923,-0.39758 4.7687,-0.39758 2.4413,0 4.64283,0.0783 4.89229,0.17405 0.24946,0.0957 2.0441,3.33744 3.9881,7.20381 1.94399,3.86637 3.67024,6.98453 3.83612,6.92924 0.27007,-0.09 1.30727,-3.63173 3.20752,-10.95267 0.35627,-1.37256 0.84101,-2.68881 1.0772,-2.92499 0.32413,-0.32415 1.28849,-0.42831 3.933,-0.42485 1.92697,0.002 3.69789,0.12754 3.93538,0.27782 0.36093,0.22837 -0.17102,2.52969 -3.24084,14.0204 -2.01995,7.56096 -3.78123,13.94969 -3.91395,14.19719 -0.19189,0.35784 -1.03341,0.46539 -4.10916,0.52516 -2.12732,0.0413 -4.01639,-0.0262 -4.19793,-0.15 -0.18155,-0.12384 -1.48773,-2.45266 -2.90264,-5.17516 -1.41491,-2.7225 -2.74358,-4.95 -2.9526,-4.95 -0.22643,0 -1.05396,2.0614 -2.04736,5.1 l -1.66733,5.1 -4.3899,0.0828 c -3.37875,0.0637 -4.42427,-0.007 -4.53909,-0.30598 z m 41.33574,0.0841 c -0.10377,-0.16791 1.04463,-4.9303 2.552,-10.5831 4.30868,-16.15798 4.75746,-17.72113 5.16138,-17.97751 0.52356,-0.33233 7.47864,-0.30518 8.01034,0.0313 0.35932,0.22737 -0.18644,2.61925 -3.30169,14.47041 l -3.73215,14.19801 -4.2506,0.0831 c -2.65004,0.0518 -4.32165,-0.0319 -4.43928,-0.22218 z m 25.42888,-0.30117 c -0.53041,-0.3234 -1.30949,-1.1347 -1.73129,-1.80288 -1.39395,-2.20816 -1.33421,-2.87095 1.1633,-12.90687 1.25238,-5.0325 2.56676,-9.72329 2.92086,-10.42399 0.68813,-1.3617 2.90418,-3.07315 3.98793,-3.07988 20.07182,-0.12468 19.5158,-0.16298 21.27536,1.46553 1.14105,1.05607 1.69821,2.18954 1.69821,3.45483 0,1.66812 -0.88644,5.09868 -1.42338,5.50851 -0.5106,0.38974 -5.89149,0.54233 -6.80208,0.1929 -0.261,-0.10015 -0.47454,-0.42269 -0.47454,-0.71676 0,-0.29407 -0.23625,-0.81792 -0.525,-1.16411 -0.47688,-0.57174 -0.88377,-0.63667 -4.43799,-0.70824 -4.16592,-0.0839 -5.08211,0.16066 -5.82877,1.55581 -0.34263,0.64022 -2.40824,8.71578 -2.40824,9.41511 0,0.2386 0.24104,0.73148 0.53563,1.0953 0.49806,0.61507 0.79887,0.66343 4.28789,0.68933 2.06373,0.0153 3.91725,-0.0741 4.11891,-0.19876 0.20166,-0.12464 0.55119,-0.66824 0.7767,-1.208 l 0.41007,-0.9814 3.77808,-0.19148 c 2.07795,-0.10532 3.98388,-0.11251 4.2354,-0.016 0.62508,0.23987 0.58023,0.84736 -0.31287,4.23764 -0.87483,3.3209 -1.73538,4.63449 -3.72558,5.68694 -1.27542,0.67445 -1.47051,0.68669 -10.92641,0.68559 -9.03324,-10e-4 -9.68737,-0.0374 -10.59219,-0.58913 z m 34.56272,0.28758 c -0.19383,-0.31364 0.14217,-1.73522 2.44566,-10.34733 4.26978,-15.9635 4.83612,-17.92024 5.26746,-18.19864 0.21369,-0.13792 2.41353,-0.21715 4.88853,-0.17607 4.34802,0.0722 4.50309,0.0965 4.59186,0.71924 0.0505,0.35449 -0.46653,2.69266 -1.14906,5.19594 -0.6825,2.50327 -1.16682,4.74448 -1.07628,4.98047 0.13413,0.34954 1.14081,0.42906 5.4315,0.42906 l 5.26683,0 0.2838,-0.74643 c 0.15609,-0.41054 0.82974,-2.86756 1.49703,-5.46005 0.66729,-2.59249 1.37997,-4.81953 1.58379,-4.94898 0.49236,-0.31273 8.36259,-0.30384 8.85726,0.01 0.39312,0.24942 0.40002,0.21989 -5.06091,21.64545 -0.82008,3.2175 -1.61973,6.15375 -1.77699,6.525 -0.27843,0.65718 -0.40443,0.675 -4.77468,0.675 -2.46882,0 -4.55991,-0.11514 -4.64688,-0.25588 -0.087,-0.14073 0.38223,-2.37353 1.04271,-4.96178 0.66048,-2.58824 1.12071,-4.83559 1.02273,-4.99412 -0.10284,-0.16643 -2.38458,-0.28822 -5.39985,-0.28822 -4.66686,0 -5.25138,0.0558 -5.50062,0.525 -0.15339,0.28875 -0.7851,2.4825 -1.40379,4.875 -0.61869,2.3925 -1.257,4.51875 -1.41843,4.725 -0.36963,0.4723 -9.68274,0.53985 -9.97167,0.0723 z m -282.71127,-5.98095 c -1.38211,-1.13973 -2.62869,-2.188 -2.77018,-2.32949 -0.14299,-0.14299 0.0618,-1.4518 0.46098,-2.94686 0.39503,-1.47929 0.6291,-2.83985 0.52018,-3.02347 -0.10893,-0.18361 -1.00805,-1.01372 -1.99805,-1.84469 -0.99,-0.83096 -3.12488,-2.8519 -4.74417,-4.49097 l -2.94418,-2.98013 0.52314,-1.09702 0.52313,-1.09702 -2.09136,-2.17837 c -3.66922,-3.82187 -9.11656,-10.93799 -9.11656,-11.90939 0,-0.27034 0.675,-1.15638 1.5,-1.96897 0.825,-0.8126 1.5,-1.71674 1.5,-2.00922 0,-0.29247 -0.42214,-1.21784 -0.9381,-2.05637 -1.79137,-2.91135 -5.41002,-12.03629 -4.95402,-12.49229 0.0934,-0.0934 2.84109,0.18041 6.10597,0.60847 12.32586,1.61605 30.73881,3.0403 34.88615,2.69845 8.25762,-0.68064 11.09866,-1.20129 14.625,-2.6802 1.23677,-0.51868 1.875,-0.95676 1.875,-1.28697 0,-0.27534 -0.7425,-1.80026 -1.65,-3.38871 -0.9075,-1.58846 -1.65,-3.04622 -1.65,-3.23947 0,-0.22459 0.29766,-0.28992 0.825,-0.18106 1.76536,0.36443 7.94066,1.06386 12.375,1.40163 2.92561,0.22285 7.82065,0.29247 13.2,0.18774 11.10605,-0.21623 17.33715,-0.92814 24.57941,-2.80823 10.98522,-2.85177 13.75581,-3.22504 17.72059,-2.38745 6.11748,1.29237 10.49987,5.09933 14.97499,13.00868 0.86355,1.52625 1.69876,2.775 1.85602,2.775 0.15725,0 1.46336,-0.95461 2.90245,-2.12136 3.75561,-3.04486 6.55259,-4.82874 11.22634,-7.16003 13.51485,-6.74126 29.09957,-7.81068 43.58084,-2.9905 6.30816,2.09971 12.60925,5.53292 17.89468,9.75007 1.11795,0.892 2.16806,1.62182 2.33358,1.62182 0.16551,0 1.28117,-1.45125 2.47925,-3.225 1.30146,-1.9268 3.34712,-4.39251 5.08184,-6.12533 2.42174,-2.41909 3.3197,-3.09845 5.41176,-4.09431 3.58137,-1.70479 5.05264,-1.97278 9.68651,-1.76441 4.5424,0.20427 8.40791,0.8659 16.97173,2.90495 12.07807,2.87579 16.09328,3.34696 27,3.16835 7.10922,-0.11642 11.62302,-0.47538 16.75611,-1.33252 2.38758,-0.39869 3.13845,-0.43438 3.24594,-0.15429 0.1731,0.45114 -0.81522,2.42463 -2.34429,4.6811 -0.63675,0.9397 -1.15776,1.85854 -1.15776,2.04187 0,0.72261 2.70714,1.50673 6.74916,1.95487 2.26311,0.25092 5.01162,0.59694 6.10779,0.76894 3.30759,0.519 16.23969,0.69469 21.67464,0.29446 5.72283,-0.42142 12.22029,-1.20943 19.1016,-2.31662 2.68575,-0.43213 4.9692,-0.69966 5.07435,-0.59451 0.32544,0.32544 -0.77265,3.7632 -2.50503,7.84245 -0.91095,2.145 -1.72746,4.3271 -1.81446,4.84911 -0.14274,0.85666 -0.0354,1.02657 1.10157,1.74434 0.86121,0.54365 1.2039,0.94076 1.08321,1.25524 -0.30183,0.78658 -7.55481,11.63352 -8.00076,11.9653 -0.55524,0.41307 -6.57207,0.19777 -6.57207,-0.23517 0,-0.17322 1.0671,-1.42646 2.37132,-2.78496 2.99046,-3.11494 4.05762,-4.68933 3.82005,-5.63581 -0.0977,-0.38943 -0.73851,-1.34516 -1.42395,-2.12386 l -1.24623,-1.4158 1.85121,-2.67583 c 2.09076,-3.02207 2.91318,-4.72698 2.48616,-5.15399 -0.17661,-0.17662 -1.78617,-0.10489 -4.29552,0.19144 -15.26754,1.80297 -30.30786,1.34633 -43.74483,-1.32813 -4.95306,-0.98585 -4.69056,-1.03784 -7.29321,1.44432 -1.74486,1.66407 -2.22744,2.87983 -1.28643,3.24093 1.12161,0.4304 0.82194,1.31819 -1.46478,4.33949 -1.25058,1.6523 -2.27379,3.18328 -2.27379,3.40219 0,0.2189 0.30375,0.60253 0.675,0.85251 l 0.675,0.4545 -0.6,1.15222 c -0.33,0.63372 -1.21644,1.79566 -1.96986,2.58209 l -1.36983,1.42987 -3.18744,0 c -1.92738,0 -3.26537,-0.12608 -3.38456,-0.31891 -0.1084,-0.1754 0.61868,-1.16846 1.61574,-2.20679 2.15987,-2.24927 2.4896,-3.16209 1.58453,-4.38628 -0.35122,-0.47505 -0.63858,-0.94777 -0.63858,-1.05048 0,-0.10271 1.14561,-1.49193 2.5458,-3.08715 1.40016,-1.59521 2.54766,-3.11572 2.55,-3.37889 0.003,-0.26318 -0.2658,-0.72285 -0.5958,-1.0215 -0.33,-0.29865 -0.6,-0.70453 -0.6,-0.90197 0,-0.19743 1.29111,-1.62776 2.86911,-3.1785 3.01683,-2.9647 4.28601,-4.63874 3.84393,-5.07011 -0.14466,-0.14117 -4.92054,-0.31078 -10.61304,-0.37693 -11.75957,-0.13663 -10.19577,0.0623 -32.33131,-4.11327 -6.14973,-1.16007 -11.82512,-2.10922 -12.61197,-2.10922 -3.41323,0 -7.62875,1.84094 -9.83526,4.29512 -1.78809,1.98878 -4.37618,5.91336 -5.54076,8.40201 l -0.94419,2.0177 1.79113,2.31759 c 3.87744,5.01709 8.24087,12.80856 8.67649,15.49301 l 0.17438,1.07457 -1.6411,0 c -1.45938,0 -1.67894,0.0831 -1.98282,0.75 -0.18795,0.4125 -0.45477,0.75 -0.59295,0.75 -0.13818,0 -0.56306,-0.77625 -0.94419,-1.725 -4.04182,-10.06134 -11.57718,-19.0888 -20.92518,-25.06864 -5.3983,-3.45326 -12.03311,-6.00691 -19.02111,-7.32099 -2.15925,-0.40604 -4.33448,-0.52831 -9.27115,-0.52113 -5.83487,0.008 -6.80931,0.086 -10.21751,0.81267 -16.55075,3.52884 -29.8632,13.91324 -37.14056,28.97159 -1.67354,3.4629 -1.58934,3.39214 -3.91415,3.28913 -1.96543,-0.0871 -1.97741,-0.0929 -1.91831,-0.93454 0.1356,-1.93068 4.20947,-9.40467 8.12328,-14.90309 l 0.96093,-1.35 -0.46295,-1.8 c -1.64711,-6.40407 -6.50497,-12.15588 -11.76246,-13.927 -3.28784,-1.10759 -6.4554,-0.81708 -14.46827,1.32694 -10.10371,2.70347 -16.37008,3.44099 -30.9,3.63676 -5.8575,0.0789 -10.95375,0.20677 -11.325,0.28411 -0.38767,0.0808 -0.67371,0.36167 -0.67196,0.65991 0.002,0.2856 1.29802,2.12227 2.88078,4.08149 2.52769,3.1289 2.83896,3.63979 2.55891,4.2 -0.85389,1.70815 -0.52883,2.61272 1.90727,5.30754 1.2375,1.36892 2.25,2.57094 2.25,2.67117 0,0.10022 -0.25992,0.69203 -0.5776,1.31514 -0.78641,1.54249 -0.46519,2.32242 1.93711,4.70336 1.06727,1.05779 1.94049,2.10784 1.94049,2.33346 0,0.32819 -0.6582,0.3899 -3.29202,0.30866 l -3.29201,-0.10154 -1.95799,-1.94133 c -1.07689,-1.06774 -1.95798,-2.04649 -1.95798,-2.175 0,-0.12852 0.27,-0.50367 0.6,-0.83367 0.33,-0.33 0.6,-0.78158 0.6,-1.00351 0,-0.22193 -0.88978,-1.40318 -1.97728,-2.625 -1.0875,-1.22182 -2.32722,-2.73798 -2.75492,-3.36924 l -0.77765,-1.14775 0.95492,-0.89246 c 0.52521,-0.49085 0.95493,-1.0811 0.95493,-1.31167 0,-0.63442 -2.81969,-3.89 -4.0021,-4.62076 l -1.0409,-0.64332 -1.56834,0.61818 c -2.53185,0.99796 -7.00014,2.06228 -10.68715,2.5456 -3.93976,0.51646 -14.54584,0.59859 -19.90151,0.15411 -1.8975,-0.15748 -6.64516,-0.56036 -10.55036,-0.89529 -3.90519,-0.33494 -7.31394,-0.52701 -7.57499,-0.42684 -0.77084,0.2958 -0.56215,1.02252 1.06767,3.71795 0.84803,1.4025 1.82668,3.05118 2.17478,3.66373 l 0.6329,1.11372 -1.575,1.59571 c -1.08966,1.10399 -1.575,1.83686 -1.575,2.37827 0,1.51886 3.54223,5.50395 9.6674,10.87603 l 2.31741,2.03249 -0.74241,0.97334 c -0.40832,0.53534 -0.7424,1.11215 -0.7424,1.28179 0,0.3021 5.36099,5.38329 8.77513,8.31714 1.89134,1.62527 2.0941,2.14225 1.00291,2.55712 -0.63893,0.24292 -0.84003,0.76821 -1.74863,4.56757 -0.69015,2.88589 -1.16643,4.31581 -1.45304,4.3624 -0.23451,0.0381 -1.55719,-0.8632 -2.9393,-2.00293 z m 116.82102,-7.49087 c -0.21656,-0.68232 0.0982,-2.12551 0.46361,-2.12551 0.37415,0 1.7794,2.1555 1.59732,2.45011 -0.316,0.5113 -1.87348,0.26599 -2.06093,-0.3246 z m 5.69714,-17.41704 c -0.22793,-0.3688 0.42962,-1.40792 2.5717,-4.06399 5.84626,-7.2491 14.04051,-12.00167 23.32628,-13.52898 4.45582,-0.73289 10.86407,-0.43205 15.34678,0.72046 8.28512,2.13012 15.68274,7.08018 20.82561,13.9353 1.05564,1.4071 1.67289,2.49995 1.56734,2.775 -0.13565,0.3535 -0.71293,0.45374 -2.6132,0.45374 l -2.43908,0 -2.44533,-2.59895 c -5.89474,-6.26505 -12.91473,-9.78642 -21.15106,-10.60983 -10.35919,-1.03562 -21.02213,3.15667 -27.65807,10.87417 -0.89127,1.03654 -1.75903,1.98379 -1.92835,2.10502 -0.46009,0.32939 -5.19431,0.27512 -5.40262,-0.0619 z m -1.2604,-6.35202 c -2.47393,-1.96541 -4.61783,-4.17669 -4.40096,-4.53928 0.68839,-1.15091 2.42227,-2.93391 3.14366,-3.23272 0.68998,-0.2858 1.03444,-0.24914 1.9693,0.20958 1.90503,0.93477 2.01608,2.61522 0.32843,4.97006 -0.3092,0.43143 -0.23565,0.65268 0.45748,1.37615 0.8361,0.8727 0.85767,1.6611 0.0539,1.96954 -0.22384,0.0859 -0.92215,-0.25311 -1.5518,-0.75333 z m 0.0837,-4.30795 c 0.3968,-0.6056 0.42014,-0.83858 0.12018,-1.2 -0.6997,-0.84309 -2.09875,-0.34213 -2.09875,0.7515 0,0.5765 0.57314,1.2 1.10308,1.2 0.2107,0 0.60467,-0.33818 0.87549,-0.7515 z m 64.55354,4.12835 c -1.23169,-0.7638 -2.23461,-2.83141 -1.87163,-3.85855 0.15923,-0.4506 0.4426,-0.87008 0.62969,-0.93218 0.58277,-0.19342 1.2423,0.73184 1.08991,1.52903 -0.17403,0.91041 1.12301,2.37995 1.85326,2.09973 0.64682,-0.24821 0.58651,-0.75771 -0.28335,-2.39369 -0.84674,-1.5925 -0.8883,-1.88942 -0.41108,-2.9368 0.79625,-1.74759 3.07838,-1.6512 4.6324,0.19565 0.94779,1.12639 0.95692,3.29296 0.0146,3.47189 -0.67544,0.12826 -1.07509,-0.41889 -1.08136,-1.48043 -0.005,-0.77555 -0.80754,-1.7715 -1.42822,-1.7715 -0.62744,0 -0.58679,0.76116 0.11562,2.16503 0.3894,0.77826 0.708,1.82451 0.708,2.325 0,1.86737 -2.13719,2.72207 -3.96788,1.58682 z m -4.75865,-4.75883 c -0.33887,-0.40831 -0.29864,-0.65811 0.26326,-1.63443 0.80947,-1.40649 0.80921,-1.32426 0.007,-2.0719 -0.8944,-0.83327 -1.3083,-0.77239 -2.30079,0.33839 -0.94885,1.06196 -1.95771,1.02389 -1.78868,-0.0675 0.15382,-0.99312 3.92584,-5.96255 4.53392,-5.97318 0.80921,-0.0142 3.69925,2.29384 4.108,3.28065 0.45857,1.10709 -0.0923,2.38239 -1.27361,2.94859 -0.45224,0.21675 -0.82226,0.59213 -0.82226,0.83416 0,0.63714 -1.51297,2.8272 -1.95313,2.8272 -0.20537,0 -0.5534,-0.21689 -0.7734,-0.48198 z m 2.9686,-5.41405 c 0.0999,-0.70078 -0.90729,-1.60397 -1.7886,-1.60397 -0.8664,0 -0.99327,1.13748 -0.20134,1.80514 0.88881,0.74933 1.8686,0.65028 1.98994,-0.20117 z m -58.82223,2.92339 c -1.11448,-1.48237 -2.10227,-2.89311 -2.19508,-3.13497 -0.18479,-0.48156 2.41492,-2.61875 3.84764,-3.1631 1.33831,-0.50848 2.92761,0.39017 2.92761,1.65538 0,0.38042 0.20815,0.86575 0.46257,1.0785 2.18444,1.82675 2.75047,3.03356 1.59486,3.40034 -0.48588,0.15421 -0.85532,-0.0237 -1.5151,-0.72968 -0.83968,-0.89845 -0.90516,-0.91675 -1.73842,-0.48586 -1.24667,0.64468 -1.35655,0.99819 -0.61994,1.99452 0.7659,1.03593 0.70765,1.87181 -0.13895,1.9938 -0.44803,0.0646 -1.10919,-0.59251 -2.62519,-2.60893 z m 2.33246,-2.80324 c 0.53568,-0.46077 0.72175,-0.84269 0.58464,-1.2 -0.28962,-0.75472 -1.41907,-0.6447 -2.22867,0.21708 -0.57766,0.61489 -0.63144,0.8194 -0.31556,1.2 0.5247,0.63224 1.03836,0.57533 1.95959,-0.21708 z m 45.09471,-0.0819 c -1.10165,-0.56556 -2.09489,-1.17698 -2.20721,-1.35872 -0.21794,-0.35262 2.68763,-6.59141 3.22425,-6.92307 0.33542,-0.20729 4.28977,1.56474 4.93732,2.21252 0.24872,0.24881 0.2821,0.53014 0.0981,0.82707 -0.24514,0.39566 -0.45214,0.38341 -1.71415,-0.10142 -1.91211,-0.73459 -2.593,-0.7652 -2.7232,-0.12244 -0.0771,0.38051 0.26123,0.6838 1.22233,1.09577 1.33085,0.57047 1.74117,1.05119 1.49633,1.75309 -0.18732,0.53702 -0.82832,0.46499 -2.23129,-0.25076 -1.09329,-0.55775 -1.27575,-0.57658 -1.67907,-0.17326 -0.67522,0.67523 -0.27062,1.28748 1.41546,2.14188 1.05188,0.53303 1.51409,0.94887 1.51409,1.36219 0,0.87816 -1.01333,0.73827 -3.35299,-0.46285 z m -38.797,-0.002 c -2.03813,-1.01088 -3.12425,-4.127 -2.10083,-6.02738 0.53851,-0.99994 2.49794,-2.21257 3.57521,-2.21257 2.02362,0 4.07562,2.44736 4.07562,4.8609 0,2.83649 -2.98263,4.65243 -5.55,3.37905 z m 3.28299,-2.0067 c 0.63712,-0.90962 0.58609,-1.91974 -0.15777,-3.12334 -0.99608,-1.61168 -2.48805,-1.73232 -3.44082,-0.27822 -1.39703,2.13215 2.14356,5.4789 3.59859,3.40156 z m 29.32045,-0.52821 c -1.2081,-0.29048 -2.3398,-0.67139 -2.51489,-0.84648 -0.22445,-0.22445 -0.0589,-1.3639 0.56144,-3.86345 0.76963,-3.10129 0.96258,-3.55713 1.54123,-3.64115 1.02519,-0.14886 1.12179,0.68074 0.40539,3.48157 -0.74056,2.89531 -0.64488,3.19212 1.12009,3.47435 1.43619,0.22965 2.13131,0.93135 1.50752,1.52176 -0.35488,0.3359 -0.78329,0.3152 -2.62078,-0.1266 z m -24.25648,0.0612 c -0.52841,-0.33608 -2.20144,-7.0436 -1.86021,-7.45795 0.5842,-0.70936 4.06103,-1.25897 5.19981,-0.82198 0.75656,0.29032 1.40376,1.79298 1.17843,2.73606 -0.28114,1.17672 -0.67851,1.58327 -2.17406,2.22434 -1.2802,0.54876 -1.31251,0.59598 -1.13902,1.66504 0.23311,1.43652 -0.33062,2.21057 -1.20495,1.65449 z m 1.83892,-4.91443 c 1.40729,-0.64121 0.6678,-2.26499 -0.85719,-1.88225 -0.84739,0.21269 -1.07219,1.2169 -0.41869,1.8704 0.43642,0.43642 0.34588,0.43558 1.27588,0.0118 z m 15.38948,3.53298 c -1.11355,-0.20025 -2.17033,-0.50979 -2.3484,-0.68786 -0.41509,-0.41509 0.73011,-7.29233 1.26987,-7.62591 0.68452,-0.42306 1.50563,0.29522 1.34297,1.1748 -0.66399,3.59048 -0.83393,4.91061 -0.6556,5.09263 0.11398,0.11633 0.90666,0.34942 1.76151,0.51797 1.36909,0.26994 1.55428,0.39456 1.55428,1.04589 0,0.90157 -0.30989,0.95269 -2.92463,0.48248 z m -10.27246,-2.35983 c -0.10906,-1.19625 -0.15433,-2.985 -0.1006,-3.975 l 0.0977,-1.8 2.55,-0.21223 c 2.03829,-0.16964 2.63772,-0.12492 2.98714,0.22286 0.68261,0.6794 -0.0461,1.16055 -2.02458,1.3368 -1.46171,0.13022 -1.71256,0.24046 -1.71256,0.75257 0,0.51667 0.24999,0.62083 1.8,0.75 1.55,0.12917 1.8,0.23333 1.8,0.75 0,0.50697 -0.2314,0.6146 -1.49239,0.69419 -1.80752,0.11408 -2.31207,0.45923 -1.97755,1.35278 0.21596,0.57686 0.46757,0.65303 2.1572,0.65303 1.72019,0 1.92187,0.064 2.00348,0.63589 0.11581,0.81157 -0.57045,1.00463 -3.59015,1.01001 l -2.2994,0.004 -0.19829,-2.175 z"
         id="path3765"
         inkscape:connector-curvature="0" />
    </g>
    <rect
       y="672.36218"
       x="0"
       height="184"
       width="1024"
       id="rect4581"
       style="fill:#a8a8a8;fill-opacity:1;stroke:none" />
    <rect
       style="fill:#e8e8e8;fill-opacity:1;stroke:none"
       id="rect4583"
       width="32.000015"
       height="184"
       x="992"
       y="864.36218" />
    <rect
       y="864.36218"
       x="928.42853"
       height="184"
       width="32.000015"
       id="rect4585"
       style="fill:#e8e8e8;fill-opacity:1;stroke:none" />
  </g>
</svg>
